<svg width="582" height="582" viewBox="0 0 582 582" fill="none" xmlns="http://www.w3.org/2000/svg">
<path d="M89.6336 179.827H188.702V76.5569L89.6336 76.5569L89.6336 179.827Z" fill="#B6B6B6"/>
<path d="M96.347 179.827H195.415V76.5569L96.347 76.5569L96.347 179.827Z" fill="#8A84FF"/>
<path d="M96.3096 76.5214H195.436V179.85H96.3096V76.5214ZM195.389 76.5796H96.3794V179.791H195.389V76.5796Z" fill="#B6B6B6"/>
<path d="M109.664 165.94H182.1V90.4318L109.664 90.4318L109.664 165.94Z" fill="#FAFCFF"/>
<path d="M182.097 166.44C182.038 166.51 182.725 167.302 183.889 168.524C185.042 169.746 186.671 171.399 188.499 173.192C190.326 174.984 191.991 176.59 193.236 177.72C194.47 178.86 195.262 179.524 195.331 179.466C195.39 179.407 194.714 178.616 193.55 177.394C192.398 176.171 190.768 174.519 188.941 172.714C187.114 170.91 185.437 169.315 184.204 168.175C182.946 167.046 182.155 166.371 182.097 166.44Z" fill="#B6B6B6"/>
<path d="M109.661 166.254C109.591 166.196 108.8 166.883 107.577 168.047C106.355 169.199 104.702 170.829 102.91 172.656C101.117 174.484 99.5109 176.148 98.3818 177.394C97.2527 178.627 96.5776 179.419 96.6358 179.489C96.694 179.547 97.4855 178.872 98.7077 177.708C99.9299 176.556 101.583 174.926 103.387 173.098C105.191 171.271 106.786 169.595 107.927 168.361C109.067 167.104 109.731 166.312 109.661 166.254Z" fill="#B6B6B6"/>
<path d="M109.859 90.629C109.917 90.5592 109.23 89.7677 108.066 88.5455C106.914 87.3233 105.284 85.6704 103.457 83.8778C101.629 82.0853 99.9648 80.479 98.7193 79.3499C97.4854 78.2208 96.6939 77.5457 96.6241 77.6039C96.5659 77.6621 97.241 78.4536 98.405 79.6758C99.5574 80.898 101.187 82.5509 103.014 84.3551C104.842 86.1593 106.518 87.754 107.752 88.8947C109.009 90.0354 109.801 90.6989 109.859 90.629Z" fill="#B6B6B6"/>
<path d="M182.294 90.8153C182.364 90.8735 183.156 90.1868 184.378 89.0228C185.6 87.8704 187.253 86.2408 189.046 84.4133C190.838 82.5858 192.445 80.9213 193.574 79.6758C194.714 78.442 195.378 77.6505 195.32 77.5806C195.261 77.5224 194.47 78.1975 193.248 79.3615C192.026 80.5139 190.373 82.1435 188.568 83.971C186.764 85.7985 185.17 87.4746 184.029 88.7085C182.9 89.9656 182.225 90.7571 182.294 90.8153Z" fill="#B6B6B6"/>
<path d="M109.858 165.94C109.858 165.94 109.87 165.812 109.87 165.567C109.87 165.311 109.882 164.962 109.882 164.508C109.893 163.565 109.905 162.203 109.917 160.434C109.928 156.861 109.963 151.658 109.986 145.046C110.021 131.823 110.068 112.978 110.126 90.4195L109.847 90.6989C130.939 90.7105 155.697 90.7222 182.073 90.7455H182.085L181.759 90.4195C181.77 118.134 181.794 144.057 181.805 165.928L182.085 165.649C160.434 165.707 142.416 165.754 129.786 165.789C123.477 165.823 118.507 165.847 115.096 165.858C113.409 165.87 112.117 165.882 111.209 165.893C110.778 165.905 110.452 165.905 110.208 165.905C109.987 165.928 109.87 165.928 109.858 165.94C109.858 165.94 109.963 165.952 110.173 165.952C110.417 165.952 110.731 165.963 111.15 165.963C112.047 165.975 113.327 165.986 114.98 165.998C118.379 166.01 123.326 166.045 129.612 166.068C142.288 166.103 160.376 166.149 182.096 166.208H182.376V165.928C182.387 144.068 182.399 118.134 182.422 90.4195V90.0936H182.096H182.085C155.708 90.1053 130.939 90.1169 109.858 90.1402H109.579V90.4195C109.637 113.048 109.684 131.951 109.719 145.221C109.754 151.797 109.777 156.989 109.789 160.551C109.8 162.297 109.812 163.635 109.824 164.578C109.835 165.02 109.835 165.346 109.835 165.602C109.847 165.835 109.858 165.94 109.858 165.94Z" fill="#B6B6B6"/>
<path d="M133.805 140.274H157.97V116.109H133.805V140.274Z" fill="#EBEBEB"/>
<path d="M61.8189 539.592H181.059L181.059 314.183H61.8189L61.8189 539.592Z" fill="#B6B6B6"/>
<path d="M97.1983 539.592H216.438L216.438 314.183H97.1983L97.1983 539.592Z" fill="#D9D9D9"/>
<path d="M105.982 324.849H208.333V360.584H105.982V324.849ZM207.076 326.106H107.24V359.327H207.076V326.106Z" fill="#B6B6B6"/>
<path d="M142.8 332.601H170.119C173.297 332.601 175.881 330.017 175.881 326.84V325.478H137.038V326.84C137.038 330.017 139.622 332.601 142.8 332.601Z" fill="#EBEBEB"/>
<path d="M105.982 370.234H208.333V405.968H105.982V370.234ZM207.076 371.502H107.24V404.723H207.076V371.502Z" fill="#B6B6B6"/>
<path d="M142.8 377.986H170.119C173.297 377.986 175.881 375.402 175.881 372.224V370.862H137.038V372.224C137.038 375.413 139.622 377.986 142.8 377.986Z" fill="#EBEBEB"/>
<path d="M105.982 415.63H208.333V451.364H105.982V415.63ZM207.076 416.887H107.24V450.107H207.076V416.887Z" fill="#B6B6B6"/>
<path d="M142.8 423.37H170.119C173.297 423.37 175.881 420.786 175.881 417.608V416.246H137.038V417.608C137.038 420.798 139.622 423.37 142.8 423.37Z" fill="#EBEBEB"/>
<path d="M105.982 461.014H208.333V496.749H105.982V461.014ZM207.076 462.271H107.24V495.492H207.076V462.271Z" fill="#B6B6B6"/>
<path d="M142.8 468.766H170.119C173.297 468.766 175.881 466.182 175.881 463.004V461.642H137.038V463.004C137.038 466.182 139.622 468.766 142.8 468.766Z" fill="#EBEBEB"/>
<path d="M92.2151 316.978H221.733V305.745H92.2151V316.978Z" fill="#EBEBEB"/>
<path d="M53.2645 316.978H92.2119V305.745H53.2645V316.978Z" fill="#B6B6B6"/>
<path d="M210.187 551.106H216.449V539.594H210.187V551.106Z" fill="#B6B6B6"/>
<path d="M171.464 551.106H177.727V539.594H171.464V551.106Z" fill="#B6B6B6"/>
<path d="M100.743 551.106H107.005V539.594H100.743V551.106Z" fill="#B6B6B6"/>
<path d="M65.3822 551.106H71.6445V539.594H65.3822V551.106Z" fill="#B6B6B6"/>
<path d="M352.441 54.3493L345.231 91.4642L400.286 102.159L407.496 65.0441L352.441 54.3493Z" fill="#D9D9D9"/>
<path d="M407.575 65.5449C407.587 65.5565 407.377 65.6962 406.97 65.9406C406.516 66.2083 405.922 66.5459 405.177 66.9882C403.559 67.9078 401.301 69.1882 398.531 70.7596C392.85 73.9257 385.063 78.2557 376.45 83.0514L376.263 83.1562L376.124 82.9932C376.019 82.8768 375.914 82.7371 375.798 82.6091C369.349 74.9965 363.518 68.094 359.257 63.0539C357.185 60.5629 355.498 58.5376 354.287 57.0942C353.728 56.4191 353.286 55.872 352.96 55.453C352.657 55.0805 352.506 54.871 352.518 54.8593C352.529 54.8477 352.704 55.0339 353.03 55.3831C353.379 55.7789 353.845 56.3027 354.438 56.9545C355.672 58.3746 357.407 60.3651 359.525 62.8095C363.82 67.8263 369.687 74.6823 376.182 82.2599C376.298 82.3879 376.403 82.5276 376.508 82.644L376.193 82.5858C384.842 77.8367 392.641 73.5648 398.344 70.4337C401.15 68.9205 403.431 67.6866 405.072 66.8136C405.841 66.4179 406.446 66.0919 406.911 65.8475C407.342 65.638 407.563 65.5332 407.575 65.5449Z" fill="#B6B6B6"/>
<path d="M345.313 91.956C345.22 91.8512 350.353 87.5677 356.767 82.3879C363.18 77.2081 368.453 73.1108 368.535 73.2156C368.628 73.3203 363.494 77.6039 357.081 82.7837C350.667 87.9635 345.394 92.0724 345.313 91.956Z" fill="#B6B6B6"/>
<path d="M386.925 76.3235C387.053 76.2653 390.161 82.1086 393.875 89.3719C397.588 96.6469 400.498 102.595 400.37 102.653C400.242 102.711 397.134 96.8681 393.421 89.6047C389.707 82.3297 386.797 76.3817 386.925 76.3235Z" fill="#B6B6B6"/>
<path d="M525.819 103.721L486.501 123.467L499.812 149.97L539.129 130.224L525.819 103.721Z" fill="#D9D9D9"/>
<path d="M526.105 103.957C526.117 103.957 526.047 104.143 525.919 104.492C525.767 104.876 525.558 105.377 525.302 106.005C524.731 107.344 523.952 109.23 522.974 111.534C520.96 116.225 518.201 122.639 515.152 129.751L515.082 129.902L514.919 129.867C514.803 129.844 514.663 129.809 514.535 129.786C506.887 128.145 499.95 126.655 494.887 125.572C492.407 125.025 490.393 124.571 488.938 124.245C488.263 124.082 487.728 123.966 487.332 123.861C486.96 123.768 486.773 123.722 486.773 123.698C486.773 123.687 486.971 123.71 487.344 123.78C487.751 123.861 488.298 123.954 488.973 124.082C490.428 124.373 492.454 124.781 494.945 125.281C500.02 126.341 506.946 127.784 514.616 129.379C514.744 129.402 514.884 129.437 515 129.46L514.779 129.576C517.876 122.488 520.669 116.086 522.706 111.406C523.719 109.125 524.557 107.263 525.151 105.936C525.43 105.319 525.663 104.83 525.837 104.457C526.012 104.12 526.093 103.945 526.105 103.957Z" fill="#B6B6B6"/>
<path d="M500.101 150.203C499.996 150.179 501.125 145.058 502.627 138.772C504.128 132.487 505.432 127.411 505.548 127.435C505.653 127.458 504.524 132.58 503.023 138.865C501.521 145.151 500.206 150.226 500.101 150.203Z" fill="#B6B6B6"/>
<path d="M518.446 120.544C518.492 120.439 523.23 122.581 529.015 125.316C534.812 128.052 539.456 130.356 539.409 130.449C539.363 130.543 534.625 128.412 528.84 125.677C523.055 122.942 518.399 120.637 518.446 120.544Z" fill="#B6B6B6"/>
<path d="M337.978 217.625L333.441 239.805L366.353 246.537L370.89 224.357L337.978 217.625Z" fill="#D9D9D9"/>
<path d="M370.92 224.629C370.92 224.64 370.804 224.722 370.548 224.862C370.28 225.013 369.919 225.222 369.465 225.478C368.488 226.014 367.126 226.771 365.461 227.69C362.039 229.552 357.348 232.102 352.168 234.919L352.064 234.977L351.982 234.884C351.924 234.814 351.854 234.732 351.784 234.651C347.966 230.053 344.521 225.886 341.995 222.848C340.773 221.346 339.772 220.124 339.05 219.251C338.724 218.844 338.456 218.506 338.259 218.262C338.084 218.029 337.991 217.912 338.002 217.901C338.014 217.889 338.119 218.006 338.305 218.215C338.515 218.46 338.794 218.774 339.132 219.17C339.865 220.031 340.889 221.23 342.146 222.708C344.684 225.735 348.164 229.878 352.005 234.453C352.075 234.534 352.133 234.616 352.203 234.686L352.017 234.651C357.22 231.857 361.923 229.343 365.356 227.504C367.044 226.619 368.418 225.886 369.407 225.374C369.873 225.141 370.234 224.955 370.513 224.803C370.781 224.675 370.92 224.617 370.92 224.629Z" fill="#B6B6B6"/>
<path d="M333.475 240.075C333.428 240.005 336.524 237.479 340.389 234.418C344.265 231.357 347.443 228.936 347.489 228.994C347.536 229.064 344.451 231.589 340.575 234.651C336.711 237.712 333.533 240.145 333.475 240.075Z" fill="#B6B6B6"/>
<path d="M358.5 230.949C358.57 230.914 360.409 234.43 362.586 238.806C364.763 243.183 366.474 246.768 366.392 246.803C366.322 246.838 364.483 243.323 362.307 238.946C360.13 234.569 358.419 230.996 358.5 230.949Z" fill="#B6B6B6"/>
<path d="M416.654 193.643L469.337 187.59L474.668 223.279L420.018 228.633L416.654 193.643Z" fill="#EBEBEB"/>
<path d="M416.654 193.643L439.434 170.77C440.4 169.804 441.913 169.641 443.054 170.398L469.337 187.602" fill="#B6B6B6"/>
<path d="M420.018 228.633C419.948 228.575 423.673 223.511 428.341 217.331C433.008 211.138 436.849 206.168 436.919 206.226C436.989 206.284 433.264 211.348 428.597 217.528C423.929 223.721 420.088 228.691 420.018 228.633Z" fill="#B6B6B6"/>
<path d="M474.668 223.279C474.61 223.348 470.012 219.274 464.401 214.176C458.791 209.078 454.298 204.899 454.356 204.841C454.414 204.771 459.012 208.845 464.623 213.943C470.233 219.018 474.726 223.209 474.668 223.279Z" fill="#B6B6B6"/>
<path d="M419.529 195.308L417.667 178.849L463.773 173.343L466.159 190.617L445.102 211.301L419.529 195.308Z" fill="#8A84FF"/>
<path d="M419.529 195.308C419.541 195.296 419.704 195.389 420.018 195.575C420.367 195.785 420.821 196.053 421.403 196.402C422.637 197.158 424.383 198.218 426.607 199.58C431.1 202.361 437.49 206.307 445.242 211.091L444.94 211.126C451.004 205.143 458.186 198.066 465.961 190.396L465.88 190.652C465.426 187.358 464.949 183.9 464.46 180.385C464.134 178.022 463.808 175.683 463.494 173.39L463.831 173.646C445.265 175.822 428.9 177.743 417.714 179.047L417.888 178.837C418.424 183.982 418.854 188.068 419.157 190.931C419.297 192.316 419.401 193.399 419.471 194.179C419.494 194.528 419.518 194.807 419.541 195.028C419.529 195.203 419.529 195.308 419.529 195.308C419.518 195.308 419.506 195.226 419.471 195.04C419.436 194.83 419.401 194.551 419.355 194.225C419.262 193.457 419.122 192.386 418.947 191.012C418.598 188.149 418.109 184.028 417.481 178.872L417.458 178.686L417.655 178.662C428.83 177.301 445.196 175.31 463.75 173.052L464.041 173.017L464.076 173.308C464.39 175.601 464.716 177.941 465.042 180.304C465.531 183.819 465.996 187.276 466.45 190.57L466.474 190.721L466.369 190.826C458.57 198.462 451.365 205.528 445.277 211.487L445.137 211.627L444.974 211.522C437.246 206.633 430.867 202.594 426.385 199.766C424.209 198.369 422.486 197.275 421.275 196.495C420.717 196.134 420.286 195.843 419.948 195.634C419.657 195.424 419.518 195.319 419.529 195.308Z" fill="#B6B6B6"/>
<path d="M457.371 182.422C457.394 182.585 450.352 183.528 441.645 184.517C432.938 185.507 425.873 186.17 425.85 186.007C425.826 185.844 432.869 184.901 441.575 183.912C450.282 182.923 457.359 182.248 457.371 182.422Z" fill="#B6B6B6"/>
<path d="M457.871 187.066C457.895 187.229 450.852 188.172 442.146 189.162C433.439 190.151 426.373 190.815 426.35 190.652C426.327 190.489 433.369 189.546 442.076 188.556C450.783 187.567 457.86 186.904 457.871 187.066Z" fill="#B6B6B6"/>
<path d="M458.453 192.433C458.477 192.596 451.434 193.538 442.728 194.528C434.021 195.517 426.955 196.181 426.932 196.018C426.909 195.855 433.951 194.912 442.658 193.922C451.365 192.933 458.43 192.27 458.453 192.433Z" fill="#B6B6B6"/>
<path d="M459.024 197.787C459.047 197.95 452.331 198.858 444.02 199.801C435.721 200.743 428.97 201.372 428.946 201.209C428.923 201.046 435.639 200.138 443.95 199.195C452.261 198.253 459.012 197.624 459.024 197.787Z" fill="#B6B6B6"/>
<path d="M453.623 203.13C453.634 203.211 452.622 203.409 450.98 203.642C449.339 203.886 447.069 204.189 444.567 204.492C442.053 204.806 439.783 205.039 438.13 205.167C436.477 205.306 435.453 205.341 435.441 205.26C435.429 205.178 436.442 204.98 438.083 204.748C439.725 204.503 441.994 204.201 444.497 203.898C447.011 203.584 449.281 203.351 450.934 203.223C452.587 203.083 453.623 203.048 453.623 203.13Z" fill="#B6B6B6"/>
<path d="M448.175 208.298C448.199 208.461 446.697 208.763 444.846 208.961C442.984 209.159 441.471 209.182 441.448 209.02C441.424 208.857 442.926 208.554 444.777 208.356C446.639 208.158 448.152 208.123 448.175 208.298Z" fill="#B6B6B6"/>
<path d="M419.482 470.326C422.066 457.487 417.096 443.403 407.027 435.033C407.027 435.033 404.141 433.974 404.385 437.21C404.537 439.154 402.674 441.889 401.126 440.69C398.449 438.618 399.287 434.416 398.135 431.227C396.784 427.502 392.815 425.512 389.183 423.917C382.479 420.984 375.658 418.132 368.464 416.828C361.271 415.525 353.565 415.862 347 419.087C348.595 422.299 350.189 425.5 351.784 428.713C352.075 429.295 352.378 429.888 352.878 430.296C353.74 430.983 354.95 430.936 356.044 430.855C358.954 430.645 361.864 430.436 364.774 430.214C366.043 430.121 367.684 430.273 368.045 431.483C368.453 432.857 366.811 433.881 365.473 434.358C362.423 435.452 359.373 436.547 356.324 437.641C359.199 442.11 363.645 445.405 368.429 447.721C373.213 450.037 378.381 451.469 383.503 452.877C385.144 453.331 386.89 453.774 388.508 453.262C391.174 452.4 393.025 449.071 395.795 449.479C395.504 452.54 393.921 455.45 391.511 457.359C402.29 461.607 409.809 466.787 419.482 470.326Z" fill="#BAB7FF"/>
<path d="M428.736 518.224C428.724 518.224 428.701 518.131 428.655 517.945C428.608 517.736 428.55 517.456 428.468 517.119C428.305 516.35 428.084 515.291 427.805 513.941C427.246 511.136 426.443 507.143 425.454 502.219C424.965 499.74 424.429 497.028 423.847 494.118C423.556 492.663 423.265 491.15 422.963 489.602C422.811 488.822 422.66 488.042 422.497 487.239C422.381 486.436 422.264 485.621 422.148 484.794C421.147 478.229 419.959 470.896 416.758 463.912C413.511 456.928 408.331 451.539 403.396 447.127C398.402 442.727 393.42 439.328 389.172 436.616C384.923 433.904 381.385 431.856 378.952 430.424C377.764 429.725 376.822 429.167 376.147 428.771C375.856 428.585 375.611 428.445 375.425 428.329C375.262 428.224 375.18 428.166 375.192 428.166C375.192 428.154 375.285 428.201 375.46 428.282C375.658 428.387 375.902 428.515 376.205 428.678C376.891 429.05 377.846 429.574 379.057 430.249C381.513 431.634 385.086 433.625 389.37 436.314C393.653 438.991 398.67 442.366 403.71 446.778C406.224 448.99 408.738 451.457 411.101 454.239C413.476 457.01 415.571 460.199 417.236 463.703C420.472 470.78 421.647 478.148 422.625 484.736C422.741 485.563 422.858 486.377 422.963 487.181C423.114 487.984 423.265 488.764 423.417 489.543C423.708 491.092 423.999 492.605 424.278 494.06C424.825 496.97 425.349 499.682 425.814 502.173C426.734 507.108 427.479 511.112 428.003 513.929C428.247 515.291 428.433 516.362 428.573 517.13C428.631 517.468 428.678 517.747 428.713 517.968C428.736 518.12 428.748 518.224 428.736 518.224Z" fill="url(#paint0_linear_7_66)"/>
<path d="M445.661 397.32C443.31 400.777 436.733 399.101 436.314 394.945C435.906 390.778 442.041 387.856 445.021 390.801C446.068 378.626 444.811 366.253 441.342 354.531C440.504 356.882 439.62 359.304 437.932 361.154C436.244 363.005 433.532 364.146 431.192 363.261C428.026 362.074 427.095 357.732 428.41 354.613C429.726 351.493 432.577 349.34 435.301 347.338C430.994 339.143 423.149 332.881 414.198 330.518C410.683 336.198 407.121 342.007 405.549 348.49C403.966 354.985 404.676 362.388 409.018 367.475C410.857 369.64 413.302 371.328 414.722 373.784C416.153 376.24 416.06 379.988 413.534 381.315C410.578 382.863 407.237 379.941 405.561 377.055C403.885 374.168 402.162 370.606 398.868 370.094C396.866 393.129 408.797 416.828 428.492 428.934L428.154 428.608C435.965 419.447 441.948 408.75 445.661 397.32ZM430.494 371.805C432.484 369.966 434.091 369.232 436.64 368.29C437.536 367.894 438.642 368.243 439.282 368.988C439.911 369.733 440.109 370.781 439.957 371.747C439.806 372.713 439.34 373.597 438.793 374.401C437.897 375.716 436.71 376.88 435.255 377.52C433.8 378.172 432.054 378.253 430.622 377.532C429.621 377.02 428.794 376.053 428.76 374.936C428.701 373.702 429.586 372.643 430.494 371.805Z" fill="#BAB7FF"/>
<path d="M433.089 518.224C433.078 518.224 433.066 518.096 433.055 517.864C433.043 517.596 433.031 517.247 433.008 516.804C432.973 515.838 432.915 514.465 432.857 512.707C432.717 509.122 432.507 503.989 432.251 497.645C431.693 484.934 430.796 467.381 429.365 448.024C427.956 428.655 426.28 411.16 424.883 398.507C424.208 392.175 423.591 387.065 423.161 383.538C422.963 381.792 422.8 380.43 422.695 379.464C422.648 379.022 422.613 378.673 422.59 378.405C422.567 378.16 422.567 378.044 422.567 378.044C422.579 378.044 422.602 378.16 422.637 378.405C422.672 378.673 422.73 379.022 422.8 379.464C422.928 380.419 423.126 381.78 423.37 383.526C423.859 387.053 424.534 392.152 425.256 398.484C426.746 411.125 428.48 428.631 429.888 448C431.32 467.369 432.158 484.934 432.624 497.645C432.857 504 432.996 509.157 433.055 512.707C433.078 514.465 433.101 515.838 433.113 516.804C433.113 517.247 433.113 517.608 433.113 517.875C433.101 518.096 433.101 518.224 433.089 518.224Z" fill="url(#paint1_linear_7_66)"/>
<path d="M395.818 496.818L405.107 536.22H453.809L464.099 496.818H395.818Z" fill="url(#paint2_linear_7_66)"/>
<path d="M411.137 527.944C411.137 528.7 414.896 551.294 414.896 551.294H444.52L447.779 527.944H411.137Z" fill="url(#paint3_linear_7_66)"/>
<path d="M452.459 536.045C452.459 536.185 441.831 536.301 428.725 536.301C415.618 536.301 404.991 536.185 404.991 536.045C404.991 535.906 415.618 535.789 428.725 535.789C441.831 535.777 452.459 535.894 452.459 536.045Z" fill="url(#paint4_linear_7_66)"/>
<path d="M457.522 520.157C457.522 520.296 444.985 520.413 429.527 520.413C414.07 520.413 401.533 520.296 401.533 520.157C401.533 520.017 414.058 519.901 429.527 519.901C444.997 519.901 457.522 520.017 457.522 520.157Z" fill="url(#paint5_linear_7_66)"/>
<path d="M455.333 525.639C455.333 525.779 443.542 525.895 428.992 525.895C414.442 525.895 402.651 525.779 402.651 525.639C402.651 525.499 414.442 525.383 428.992 525.383C443.531 525.383 455.333 525.499 455.333 525.639Z" fill="url(#paint6_linear_7_66)"/>
<path d="M455.171 531.133C455.171 531.273 443.798 531.389 429.772 531.389C415.734 531.389 404.374 531.273 404.374 531.133C404.374 530.993 415.746 530.877 429.772 530.877C443.798 530.877 455.171 530.993 455.171 531.133Z" fill="url(#paint7_linear_7_66)"/>
<path d="M458.942 514.826C458.942 514.965 445.847 515.082 429.702 515.082C413.546 515.082 400.451 514.965 400.451 514.826C400.451 514.686 413.546 514.569 429.702 514.569C445.847 514.569 458.942 514.686 458.942 514.826Z" fill="url(#paint8_linear_7_66)"/>
<path d="M459.873 510.437C459.873 510.577 446.534 510.693 430.086 510.693C413.627 510.693 400.288 510.577 400.288 510.437C400.288 510.298 413.627 510.181 430.086 510.181C446.534 510.17 459.873 510.286 459.873 510.437Z" fill="url(#paint9_linear_7_66)"/>
<path d="M538.955 551.317C538.955 551.48 427.933 551.62 291.012 551.62C154.044 551.62 43.0449 551.48 43.0449 551.317C43.0449 551.154 154.044 551.014 291.012 551.014C427.933 551.014 538.955 551.154 538.955 551.317Z" fill="url(#paint10_linear_7_66)"/>
<path d="M282.037 501.451L278.883 543.285L260.69 542.913L258.199 499.379L282.037 501.451Z" fill="#FFBE9D"/>
<path d="M279.453 537.78L279.442 538.99C279.442 538.99 299.881 547.418 300.068 551.317L259.328 550.723L260.084 537.174C266.09 540.073 272.434 540.48 279.453 537.78Z" fill="#BAB7FF"/>
<path d="M285.867 545.415C285.704 545.45 285.471 544.566 285.937 543.611C286.391 542.657 287.229 542.284 287.299 542.436C287.392 542.587 286.857 543.087 286.484 543.879C286.112 544.659 286.042 545.404 285.867 545.415Z" fill="url(#paint11_linear_7_66)"/>
<path d="M264.147 541.574C263.355 541.784 262.796 542.657 262.971 543.46C263.146 544.263 264.03 544.833 264.822 544.647C265.613 544.461 266.323 543.425 266.056 542.645C265.8 541.865 264.717 541.248 263.984 541.632" fill="#FAFCFF"/>
<path d="M279.581 539.107C279.57 539.304 278.58 539.386 277.591 540.003C276.59 540.608 276.066 541.458 275.891 541.376C275.705 541.33 276.02 540.154 277.23 539.409C278.429 538.676 279.628 538.932 279.581 539.107Z" fill="url(#paint12_linear_7_66)"/>
<path d="M283.83 540.934C283.876 541.132 283.003 541.458 282.317 542.284C281.607 543.099 281.42 544.007 281.222 543.995C281.036 544.019 280.92 542.855 281.793 541.842C282.666 540.818 283.83 540.748 283.83 540.934Z" fill="url(#paint13_linear_7_66)"/>
<path d="M259.339 550.758L259.514 547.674L298.811 549.35C298.811 549.35 299.893 550.141 300.056 551.317L259.339 550.758Z" fill="url(#paint14_linear_7_66)"/>
<path d="M377.404 137.946C377.404 137.946 385.04 130.403 387.065 129.146C389.09 127.889 391.581 125.014 393.153 124.362C394.724 123.71 398.356 121.219 398.356 121.219L401.44 117.401C401.44 117.401 403.745 117.157 403.268 119.764L409.03 118.658C409.03 118.658 410.578 119.997 408.122 121.58C405.666 123.163 403.931 122.744 403.931 122.744L401.51 125.444L401.918 126.876L415.862 128.703C415.862 128.703 415.571 131.09 413.29 131.043C411.008 130.997 402.535 130.682 402.535 130.682L415.548 135.478C415.548 135.478 416.223 137.457 412.161 136.875C408.098 136.293 401.627 134.302 401.627 134.302L400.498 135.338L404.036 137.41L407.365 141.694C407.365 141.694 405.293 142.834 403.151 140.751C401.021 138.667 401.021 138.667 401.021 138.667L397.913 138.679C397.913 138.679 389.463 144.58 386.634 143.207L384.236 145.616L377.404 137.946Z" fill="#FFBE9D"/>
<path d="M402.162 127.714C402.232 127.691 402.476 128.238 402.639 129.169C402.802 130.1 402.826 131.474 402.36 132.882C401.918 134.337 400.893 135.338 400.125 135.874C399.345 136.421 398.775 136.607 398.74 136.537C398.693 136.456 399.182 136.141 399.857 135.536C400.521 134.931 401.394 133.988 401.778 132.696C402.639 130.054 401.941 127.737 402.162 127.714Z" fill="#EB996E"/>
<path d="M390.266 137.678C390.231 137.573 391.791 137.724 393.723 136.316C394.678 135.618 395.644 134.547 396.4 133.115C397.169 131.695 397.739 129.949 398.309 128.052L398.333 127.97L398.403 127.912C399.927 126.597 401.347 124.769 402.244 122.627C402.674 121.58 402.965 120.462 403.059 119.426C403.082 118.914 402.954 118.437 402.663 118.123C402.372 117.808 401.871 117.68 401.452 117.692L401.673 117.564C399.462 120.963 396.831 123.291 394.829 124.676C393.828 125.374 392.978 125.852 392.385 126.131C391.791 126.422 391.453 126.538 391.43 126.515C391.395 126.434 392.699 125.84 394.62 124.385C396.529 122.942 399.066 120.59 401.185 117.25L401.266 117.122H401.406C401.999 117.098 402.616 117.261 403.082 117.715C403.536 118.193 403.675 118.856 403.652 119.45C403.547 120.625 403.256 121.754 402.791 122.86C401.848 125.107 400.393 126.969 398.752 128.354L398.845 128.215C398.251 130.112 397.658 131.881 396.82 133.348C396.005 134.814 394.945 135.92 393.921 136.595C392.897 137.294 391.931 137.573 391.279 137.666C390.627 137.759 390.266 137.701 390.266 137.678Z" fill="#EB996E"/>
<path d="M274.168 193.759L329.761 170.212L377.718 135.49L387.426 145.814C387.426 145.814 353.809 180.827 345.056 187.974C336.303 195.121 288.998 225.246 288.998 225.246L274.168 193.759Z" fill="#BAB7FF"/>
<path d="M306.097 200.871C304.665 200.662 303.14 200.557 301.848 201.197C301.406 201.419 300.952 201.919 301.197 202.35C301.348 202.617 301.697 202.699 302.011 202.746C307.529 203.607 312.476 205.248 317.993 206.109L318.924 205.725C315.095 203.63 310.392 201.5 306.097 200.871Z" fill="#8A84FF"/>
<path d="M316.107 197.507C316.783 200.126 318.354 202.99 319.576 205.399L320.123 205.085C320.263 202.408 320.03 199.381 319.623 196.739C319.215 194.097 318.214 191.466 316.363 189.534C315.339 192.037 315.432 194.888 316.107 197.507Z" fill="#8A84FF"/>
<path d="M325.175 194.376C323.999 197.624 322.905 200.732 321.729 203.979L323.999 201.593C326.048 198.776 328.027 195.889 329.121 192.584C329.249 192.188 329.365 191.781 329.319 191.373C329.272 190.966 329.051 190.547 328.667 190.407C328.248 190.244 327.771 190.442 327.398 190.71C326.223 191.571 325.675 193.014 325.175 194.376Z" fill="#8A84FF"/>
<path d="M364.286 155.72C365.566 155.592 366.916 155.359 367.894 154.533C368.232 154.242 368.511 153.718 368.208 153.392C368.022 153.194 367.696 153.194 367.417 153.229C362.458 153.671 357.837 153.299 352.89 153.741L352.168 154.277C355.917 155.266 360.445 156.104 364.286 155.72Z" fill="#8A84FF"/>
<path d="M356.359 160.783C355.218 158.665 353.239 156.523 351.679 154.696L351.272 155.091C351.726 157.431 352.576 159.992 353.495 162.192C354.415 164.392 355.835 166.452 357.86 167.721C358.198 165.335 357.499 162.902 356.359 160.783Z" fill="#8A84FF"/>
<path d="M349.189 165.416C349.514 162.355 349.794 159.433 350.108 156.372L348.653 158.921C347.489 161.796 346.395 164.718 346.162 167.814C346.139 168.175 346.127 168.559 346.244 168.896C346.372 169.246 346.651 169.548 347.024 169.595C347.419 169.641 347.792 169.362 348.059 169.059C348.886 168.07 349.049 166.708 349.189 165.416Z" fill="#8A84FF"/>
<path d="M163.146 438.001L121.045 451.83L114.061 433.927L155.546 413.895L163.146 438.001Z" fill="#FFBE9D"/>
<path d="M126.655 450.165L125.468 450.642C125.468 450.642 125.491 474.004 121.766 475.75L105.877 435.755L119.403 431.017C119.019 438.048 121.172 444.403 126.655 450.165Z" fill="#BAB7FF"/>
<path d="M116.761 436.756C116.237 436.069 115.155 435.871 114.444 436.372C113.734 436.861 113.537 437.966 114.037 438.665C114.538 439.363 115.841 439.631 116.493 439.061C117.145 438.49 117.308 437.187 116.656 436.628" fill="#FAFCFF"/>
<path d="M105.877 435.755L109.137 434.614L123.174 473.375C123.174 473.375 123.105 475.459 121.778 475.762L105.877 435.755Z" fill="url(#paint15_linear_7_66)"/>
<path d="M125.409 450.829C125.211 450.899 124.734 449.956 123.721 449.246C122.732 448.512 121.684 448.349 121.696 448.14C121.661 447.942 122.941 447.767 124.152 448.652C125.374 449.525 125.607 450.794 125.409 450.829Z" fill="url(#paint16_linear_7_66)"/>
<path d="M125.339 455.718C125.165 455.834 124.501 455.124 123.407 454.786C122.325 454.414 121.37 454.612 121.3 454.414C121.196 454.239 122.29 453.657 123.628 454.1C124.99 454.519 125.526 455.636 125.339 455.718Z" fill="url(#paint17_linear_7_66)"/>
<path d="M121.265 460.094C121.149 459.931 122.022 459.279 123.291 459.349C124.559 459.419 125.351 460.176 125.223 460.315C125.106 460.49 124.292 460.129 123.256 460.083C122.208 460.001 121.358 460.28 121.265 460.094Z" fill="url(#paint18_linear_7_66)"/>
<path d="M276.578 342.158C276.578 342.158 245.709 405.002 237.409 409.844C229.122 414.687 133.709 448.641 133.709 448.641L126.352 425.966L212.721 380.36C212.721 380.36 223.988 349.596 228.202 326.246C230.774 311.929 236.676 303.536 245.162 292.385C247.757 288.975 252.192 284.097 254.392 282.608L293.188 289.952L276.578 342.158Z" fill="url(#paint19_linear_7_66)"/>
<path d="M303.862 291.954L262.191 284.982L253.705 333.94L262.167 436.814C262.167 436.814 256.382 472.572 257.337 496.085C258.233 518.271 259.094 526.64 259.094 526.64C259.094 526.64 277.02 526.722 281.082 526.722C282.793 526.722 298.1 415.385 298.1 415.385L303.862 291.954Z" fill="url(#paint20_linear_7_66)"/>
<path d="M284.784 318.82C284.807 318.831 284.714 319.076 284.516 319.553C284.284 320.077 283.993 320.752 283.632 321.59C282.829 323.429 281.7 325.966 280.338 329.074C277.567 335.476 273.796 344.206 269.617 353.844C265.38 363.505 261.213 372.107 257.989 378.218C256.371 381.268 255.032 383.724 254.066 385.4C253.601 386.192 253.24 386.832 252.949 387.321C252.693 387.763 252.541 387.984 252.518 387.973C252.495 387.961 252.611 387.717 252.832 387.263C253.088 386.751 253.426 386.099 253.845 385.284C254.765 383.503 256.033 381.035 257.593 378.021C260.713 371.863 264.822 363.249 269.047 353.6C273.284 343.95 277.044 335.174 279.93 328.9C281.374 325.757 282.549 323.219 283.411 321.485C283.818 320.659 284.144 320.007 284.4 319.495C284.633 319.041 284.761 318.808 284.784 318.82Z" fill="url(#paint21_linear_7_66)"/>
<path d="M130.927 430.703C130.996 430.855 130.473 431.262 129.751 431.599C129.029 431.949 128.377 432.1 128.308 431.96C128.238 431.809 128.761 431.402 129.483 431.064C130.205 430.703 130.845 430.552 130.927 430.703Z" fill="url(#paint22_linear_7_66)"/>
<path d="M141.344 425.663C141.414 425.814 140.308 426.501 138.877 427.2C137.433 427.898 136.211 428.34 136.141 428.189C136.071 428.038 137.177 427.351 138.609 426.652C140.052 425.954 141.275 425.512 141.344 425.663Z" fill="url(#paint23_linear_7_66)"/>
<path d="M151.762 420.588C151.832 420.739 150.726 421.426 149.294 422.136C147.851 422.834 146.629 423.288 146.559 423.137C146.489 422.986 147.595 422.299 149.026 421.589C150.47 420.891 151.692 420.437 151.762 420.588Z" fill="url(#paint24_linear_7_66)"/>
<path d="M162.145 415.49C162.215 415.641 161.121 416.339 159.689 417.038C158.257 417.748 157.035 418.19 156.965 418.039C156.895 417.888 157.989 417.201 159.421 416.491C160.841 415.792 162.063 415.338 162.145 415.49Z" fill="url(#paint25_linear_7_66)"/>
<path d="M172.505 410.333C172.575 410.484 171.48 411.183 170.049 411.893C168.617 412.603 167.395 413.069 167.325 412.917C167.255 412.766 168.349 412.067 169.781 411.357C171.213 410.647 172.435 410.182 172.505 410.333Z" fill="url(#paint26_linear_7_66)"/>
<path d="M182.852 405.13C182.922 405.281 181.828 405.98 180.408 406.702C178.976 407.423 177.766 407.889 177.684 407.737C177.614 407.586 178.709 406.888 180.129 406.166C181.56 405.444 182.783 404.979 182.852 405.13Z" fill="url(#paint27_linear_7_66)"/>
<path d="M193.166 399.834C193.247 399.985 192.153 400.695 190.733 401.429C189.313 402.162 188.091 402.639 188.021 402.488C187.939 402.337 189.034 401.626 190.454 400.893C191.874 400.16 193.084 399.694 193.166 399.834Z" fill="url(#paint28_linear_7_66)"/>
<path d="M203.397 394.421C203.478 394.573 202.396 395.294 200.987 396.051C199.579 396.808 198.369 397.296 198.287 397.145C198.206 396.994 199.288 396.272 200.697 395.516C202.117 394.759 203.327 394.27 203.397 394.421Z" fill="url(#paint29_linear_7_66)"/>
<path d="M213.489 388.729C213.571 388.869 212.523 389.637 211.138 390.44C209.753 391.244 208.565 391.779 208.484 391.628C208.402 391.476 209.462 390.72 210.835 389.917C212.209 389.113 213.396 388.578 213.489 388.729Z" fill="url(#paint30_linear_7_66)"/>
<path d="M219.786 380.116C219.961 380.151 219.798 381.443 219.577 383.002C219.53 383.387 219.484 383.759 219.472 384.073C219.472 384.166 219.472 384.19 219.484 384.306C219.484 384.481 219.437 384.585 219.391 384.667C219.286 384.842 219.181 384.946 219.076 385.039C218.657 385.412 218.355 385.54 218.296 385.482C218.238 385.412 218.459 385.156 218.75 384.76C218.82 384.655 218.89 384.551 218.937 384.446C218.96 384.399 218.948 384.353 218.96 384.353C218.937 384.318 218.925 384.166 218.913 384.085C218.89 383.701 218.925 383.317 218.983 382.909C219.216 381.315 219.635 380.081 219.786 380.116Z" fill="url(#paint31_linear_7_66)"/>
<path d="M222.475 368.848C222.638 368.895 222.452 370.175 222.067 371.735C221.683 373.283 221.229 374.505 221.066 374.47C220.903 374.435 221.09 373.143 221.474 371.584C221.87 370.036 222.312 368.813 222.475 368.848Z" fill="url(#paint32_linear_7_66)"/>
<path d="M225.443 357.662C225.606 357.709 225.397 358.989 224.989 360.537C224.57 362.074 224.105 363.296 223.942 363.249C223.779 363.203 223.988 361.922 224.396 360.374C224.815 358.838 225.28 357.616 225.443 357.662Z" fill="url(#paint33_linear_7_66)"/>
<path d="M228.551 346.499C228.714 346.546 228.493 347.826 228.063 349.375C227.632 350.911 227.143 352.122 226.992 352.087C226.829 352.04 227.05 350.76 227.481 349.212C227.911 347.663 228.388 346.453 228.551 346.499Z" fill="url(#paint34_linear_7_66)"/>
<path d="M231.764 335.372C231.927 335.418 231.694 336.699 231.24 338.235C230.797 339.771 230.297 340.982 230.134 340.935C229.971 340.889 230.204 339.609 230.658 338.072C231.112 336.524 231.601 335.325 231.764 335.372Z" fill="url(#paint35_linear_7_66)"/>
<path d="M235.116 324.279C235.279 324.325 235.023 325.606 234.558 327.142C234.092 328.667 233.58 329.866 233.417 329.819C233.254 329.773 233.51 328.492 233.976 326.956C234.441 325.431 234.953 324.232 235.116 324.279Z" fill="url(#paint36_linear_7_66)"/>
<path d="M238.992 313.372C239.144 313.454 238.655 314.641 238.166 316.154C237.619 317.644 237.048 318.808 236.897 318.761C236.734 318.715 237.06 317.446 237.607 315.933C238.096 314.396 238.853 313.291 238.992 313.372Z" fill="url(#paint37_linear_7_66)"/>
<path d="M245.231 303.618C245.371 303.711 244.754 304.863 243.858 306.179C242.961 307.494 242.123 308.495 241.984 308.402C241.844 308.309 242.461 307.168 243.357 305.841C244.253 304.526 245.103 303.525 245.231 303.618Z" fill="url(#paint38_linear_7_66)"/>
<path d="M252.052 294.259C252.18 294.364 251.529 295.481 250.574 296.762C249.62 298.042 248.747 299.008 248.607 298.915C248.467 298.822 249.131 297.693 250.085 296.401C251.04 295.12 251.924 294.154 252.052 294.259Z" fill="url(#paint39_linear_7_66)"/>
<path d="M257.349 287.333C257.477 287.438 257.186 288.032 256.697 288.672C256.208 289.3 255.696 289.731 255.568 289.638C255.44 289.533 255.731 288.94 256.22 288.299C256.708 287.659 257.221 287.229 257.349 287.333Z" fill="url(#paint40_linear_7_66)"/>
<path d="M262.272 373.446C262.109 373.458 261.923 372.818 261.853 372.014C261.795 371.211 261.876 370.548 262.039 370.536C262.202 370.524 262.389 371.165 262.458 371.968C262.528 372.783 262.447 373.434 262.272 373.446Z" fill="url(#paint41_linear_7_66)"/>
<path d="M263.18 385.47C263.017 385.482 262.773 384.143 262.657 382.49C262.528 380.826 262.563 379.476 262.738 379.464C262.901 379.452 263.145 380.791 263.262 382.444C263.39 384.108 263.343 385.459 263.18 385.47Z" fill="url(#paint42_linear_7_66)"/>
<path d="M263.983 397.506C263.82 397.518 263.599 396.179 263.494 394.514C263.39 392.85 263.436 391.5 263.611 391.488C263.774 391.476 263.995 392.815 264.1 394.479C264.193 396.132 264.146 397.494 263.983 397.506Z" fill="url(#paint43_linear_7_66)"/>
<path d="M264.565 409.53C264.402 409.542 264.205 408.191 264.135 406.539C264.065 404.874 264.135 403.524 264.309 403.512C264.472 403.501 264.67 404.839 264.74 406.504C264.81 408.168 264.728 409.53 264.565 409.53Z" fill="url(#paint44_linear_7_66)"/>
<path d="M264.845 421.577C264.682 421.577 264.519 420.227 264.495 418.574C264.472 416.91 264.577 415.56 264.751 415.56C264.914 415.56 265.077 416.898 265.101 418.563C265.124 420.216 265.019 421.566 264.845 421.577Z" fill="url(#paint45_linear_7_66)"/>
<path d="M264.763 433.625C264.6 433.625 264.484 432.275 264.507 430.61C264.53 428.946 264.693 427.607 264.856 427.607C265.019 427.607 265.135 428.957 265.112 430.622C265.089 432.275 264.938 433.625 264.763 433.625Z" fill="url(#paint46_linear_7_66)"/>
<path d="M264.286 445.672C264.123 445.661 264.053 444.31 264.135 442.646C264.216 440.981 264.402 439.643 264.577 439.654C264.74 439.666 264.821 441.016 264.74 442.681C264.659 444.334 264.449 445.672 264.286 445.672Z" fill="url(#paint47_linear_7_66)"/>
<path d="M263.436 457.696C263.273 457.685 263.238 456.323 263.366 454.67C263.494 453.005 263.727 451.678 263.902 451.69C264.065 451.702 264.1 453.052 263.972 454.717C263.844 456.369 263.599 457.708 263.436 457.696Z" fill="url(#paint48_linear_7_66)"/>
<path d="M262.423 469.697C262.26 469.686 262.237 468.324 262.377 466.671C262.517 465.006 262.773 463.679 262.936 463.691C263.099 463.703 263.122 465.065 262.982 466.717C262.842 468.382 262.586 469.721 262.423 469.697Z" fill="url(#paint49_linear_7_66)"/>
<path d="M261.469 481.721C261.306 481.71 261.271 480.359 261.387 478.695C261.515 477.03 261.748 475.703 261.911 475.715C262.074 475.727 262.109 477.089 261.993 478.741C261.876 480.394 261.643 481.733 261.469 481.721Z" fill="url(#paint50_linear_7_66)"/>
<path d="M260.817 493.757C260.654 493.757 260.573 492.395 260.654 490.731C260.724 489.066 260.922 487.728 261.096 487.739C261.259 487.751 261.341 489.101 261.259 490.766C261.189 492.418 260.992 493.757 260.817 493.757Z" fill="url(#paint51_linear_7_66)"/>
<path d="M260.712 505.816C260.549 505.816 260.398 504.466 260.398 502.801C260.386 501.137 260.526 499.787 260.689 499.787C260.852 499.787 261.003 501.137 261.003 502.801C261.003 504.454 260.875 505.804 260.712 505.816Z" fill="url(#paint52_linear_7_66)"/>
<path d="M261.376 517.84C261.213 517.852 260.969 516.525 260.852 514.86C260.724 513.196 260.759 511.846 260.934 511.834C261.097 511.822 261.341 513.161 261.458 514.814C261.574 516.467 261.539 517.817 261.376 517.84Z" fill="url(#paint53_linear_7_66)"/>
<path d="M262.517 526.733C262.354 526.756 262.121 526.14 261.993 525.336C261.876 524.545 261.911 523.881 262.074 523.858C262.237 523.835 262.47 524.463 262.598 525.255C262.715 526.046 262.68 526.71 262.517 526.733Z" fill="url(#paint54_linear_7_66)"/>
<path d="M275.228 292.187C275.263 292.21 275.042 292.63 274.599 293.363C274.157 294.096 273.459 295.12 272.527 296.331C270.665 298.729 267.685 301.93 263.436 304.06C259.176 306.178 254.66 306.353 251.668 305.62C250.167 305.271 249.003 304.77 248.258 304.339C247.513 303.909 247.14 303.618 247.152 303.583C247.21 303.455 248.782 304.619 251.75 305.201C254.672 305.806 259.025 305.562 263.157 303.513C267.278 301.453 270.258 298.368 272.19 296.063C274.134 293.724 275.146 292.129 275.228 292.187Z" fill="url(#paint55_linear_7_66)"/>
<path d="M296.017 292.909C296.087 292.921 295.959 294.213 295.505 296.25C295.051 298.287 294.247 301.069 293.014 304.013C291.78 306.958 290.36 309.484 289.231 311.242C288.102 313 287.275 314.001 287.217 313.954C287.135 313.896 287.834 312.813 288.87 311.021C289.906 309.228 291.244 306.691 292.455 303.781C293.665 300.871 294.538 298.147 295.086 296.145C295.644 294.143 295.924 292.886 296.017 292.909Z" fill="url(#paint56_linear_7_66)"/>
<path d="M291.035 293.887C291.058 293.98 290.476 294.026 290.092 294.713C289.918 295.039 289.801 295.505 289.964 295.924C290.115 296.343 290.593 296.634 291.14 296.634C291.687 296.634 292.164 296.343 292.315 295.924C292.478 295.505 292.362 295.039 292.187 294.713C291.803 294.038 291.221 293.991 291.245 293.898C291.245 293.863 291.384 293.817 291.64 293.863C291.896 293.91 292.257 294.096 292.537 294.48C292.816 294.853 293.049 295.446 292.839 296.11C292.641 296.785 291.885 297.251 291.14 297.239C290.395 297.251 289.638 296.797 289.44 296.122C289.231 295.458 289.464 294.864 289.731 294.492C290.022 294.108 290.372 293.922 290.628 293.875C290.895 293.805 291.035 293.852 291.035 293.887Z" fill="url(#paint57_linear_7_66)"/>
<path d="M233.359 142.241C229.622 140.39 225.153 140.099 221.195 141.426C217.249 142.753 213.873 145.709 212.011 149.434C210.16 153.171 209.718 157.687 206.924 160.783C204.422 163.542 200.592 164.555 197.054 165.765C193.527 166.964 189.779 168.803 188.394 172.272C187.218 175.228 188.009 178.86 186.205 181.479C184.354 184.156 180.653 184.61 177.417 184.808C177.731 186.263 179.116 187.427 180.618 187.462C178.278 188.824 175.496 189.418 172.796 189.138C173.657 193.073 177.126 196.041 180.932 197.356C184.739 198.671 188.871 198.59 192.898 198.334C197.449 198.043 202.315 197.414 205.714 194.376C209.799 190.71 211.092 184.11 216.108 181.875C218.669 180.734 221.707 181.037 224.256 179.85C227.76 178.22 229.494 174.146 229.89 170.293C230.274 166.44 229.646 162.553 229.937 158.7C230.228 154.847 231.718 150.726 235.082 148.817L233.359 142.241Z" fill="url(#paint58_linear_7_66)"/>
<path d="M234.244 141.1C234.581 140.343 233.72 139.505 232.893 139.54C232.067 139.575 231.392 140.18 230.833 140.786C228.808 142.951 227.318 145.686 226.98 148.631C226.643 151.576 227.562 154.719 229.716 156.756C230.204 157.21 230.798 157.629 231.462 157.629C232.16 157.629 232.8 157.152 233.173 156.558C233.545 155.964 233.708 155.266 233.848 154.579C234.756 150.098 235.093 145.5 234.86 140.925L234.244 141.1Z" fill="#BAB7FF"/>
<path d="M230.705 156.686C230.67 148.375 232.043 139.54 237.421 133.196C242.205 127.539 250.295 123.884 257.605 122.697C261.202 122.115 265.578 122.93 269.047 124.047C273.808 125.584 276.625 130.1 279.593 134.128C285.552 142.183 287.508 154.346 285.413 158.281L252.25 185.611C244.952 183.539 236.827 180.35 233.591 173.482C231.38 168.792 230.728 161.843 230.705 156.686Z" fill="url(#paint59_linear_7_66)"/>
<path d="M241.832 140.402L263.832 128.657C271.154 126.003 278.44 134.023 280.78 141.438C283.387 149.69 286.227 159.864 286.786 166.359C287.904 179.419 278.661 183.411 278.661 183.411C278.65 183.365 278.661 183.411 278.661 183.411L283.166 198.159L288.311 214.572L254.916 194.807L238.981 145.861C238.375 143.579 239.609 141.205 241.832 140.402Z" fill="#FFBE9D"/>
<path d="M280.419 149.981C280.663 150.819 280.14 151.727 279.267 151.995C278.394 152.263 277.486 151.797 277.241 150.947C276.997 150.098 277.521 149.201 278.394 148.934C279.278 148.666 280.186 149.132 280.419 149.981Z" fill="url(#paint60_linear_7_66)"/>
<path d="M279.593 145.896C279.476 146.175 277.975 145.733 276.299 146.361C274.622 146.967 273.703 148.282 273.447 148.142C273.319 148.084 273.389 147.642 273.773 147.06C274.157 146.478 274.913 145.768 275.961 145.384C277.009 144.999 278.033 145.058 278.673 145.267C279.348 145.477 279.651 145.779 279.593 145.896Z" fill="url(#paint61_linear_7_66)"/>
<path d="M264.588 154.602C264.833 155.44 264.309 156.348 263.436 156.616C262.563 156.884 261.655 156.418 261.411 155.568C261.166 154.719 261.69 153.823 262.563 153.555C263.436 153.287 264.344 153.764 264.588 154.602Z" fill="url(#paint62_linear_7_66)"/>
<path d="M262.982 150.994C262.831 151.25 261.387 150.656 259.653 151.087C257.919 151.495 256.859 152.705 256.627 152.542C256.51 152.472 256.615 152.042 257.081 151.495C257.523 150.959 258.361 150.331 259.444 150.074C260.526 149.818 261.527 149.981 262.156 150.261C262.784 150.54 263.064 150.878 262.982 150.994Z" fill="url(#paint63_linear_7_66)"/>
<path d="M272.376 163.181C272.341 163.088 273.377 162.634 275.064 161.971C275.495 161.819 275.891 161.621 275.891 161.307C275.914 160.958 275.611 160.527 275.274 160.062C274.587 159.095 273.877 158.071 273.132 157.012C270.129 152.659 267.824 149.038 268.011 148.922C268.185 148.806 270.769 152.228 273.772 156.581C274.506 157.652 275.204 158.688 275.868 159.666C276.159 160.131 276.589 160.632 276.531 161.342C276.496 161.703 276.228 162.029 275.961 162.168C275.693 162.32 275.449 162.39 275.239 162.459C273.493 163.006 272.41 163.274 272.376 163.181Z" fill="url(#paint64_linear_7_66)"/>
<path d="M278.661 183.411C278.661 183.411 270.339 186.054 260.712 183.086C260.712 183.086 267.301 190.756 279.592 186.473L278.661 183.411Z" fill="#EB996E"/>
<path d="M267.452 167.837C267.754 166.906 268.546 166.254 269.454 165.998C270.769 165.626 271.991 165.8 273.167 166.813C273.551 167.092 273.772 168.093 273.714 168.407C273.656 168.71 273.726 168.559 273.551 168.792C272.946 169.665 272.294 170.561 271.351 171.038C270.408 171.527 269.105 171.504 268.22 170.689C267.429 169.979 267.149 168.768 267.452 167.837Z" fill="#EB996E"/>
<path d="M267.569 165.649C267.848 165.567 268.313 167.441 270.257 168.384C272.201 169.327 274.157 168.617 274.238 168.873C274.296 168.989 273.877 169.35 273.039 169.583C272.213 169.816 270.932 169.851 269.745 169.28C268.558 168.71 267.86 167.721 267.615 166.964C267.347 166.184 267.44 165.672 267.569 165.649Z" fill="url(#paint65_linear_7_66)"/>
<path d="M262.458 146.699C262.4 147.211 260.619 147.421 258.64 148.165C256.65 148.876 255.16 149.877 254.776 149.516C254.601 149.341 254.776 148.829 255.335 148.212C255.882 147.595 256.825 146.897 258.012 146.466C259.199 146.035 260.363 145.942 261.178 146.07C262.004 146.187 262.482 146.466 262.458 146.699Z" fill="url(#paint66_linear_7_66)"/>
<path d="M277.753 141.496C277.544 141.961 276.252 141.857 274.808 142.194C273.353 142.485 272.224 143.114 271.84 142.776C271.665 142.602 271.759 142.159 272.201 141.659C272.632 141.158 273.435 140.634 274.424 140.425C275.414 140.215 276.368 140.355 276.962 140.634C277.579 140.902 277.846 141.263 277.753 141.496Z" fill="url(#paint67_linear_7_66)"/>
<path d="M246.058 160.376C245.86 160.341 238.503 159.805 240.261 166.824C242.007 173.843 248.688 170.631 248.653 170.433C248.607 170.223 246.058 160.376 246.058 160.376Z" fill="#FFBE9D"/>
<path d="M245.848 168.303C245.813 168.291 245.743 168.419 245.569 168.57C245.394 168.71 245.056 168.861 244.661 168.815C243.858 168.733 242.938 167.709 242.589 166.452C242.414 165.823 242.391 165.172 242.496 164.613C242.577 164.042 242.822 163.6 243.182 163.449C243.532 163.274 243.858 163.426 243.986 163.6C244.125 163.775 244.114 163.926 244.16 163.926C244.183 163.938 244.277 163.775 244.149 163.495C244.09 163.367 243.962 163.216 243.764 163.123C243.567 163.03 243.299 163.018 243.043 163.111C242.507 163.286 242.146 163.903 242.042 164.52C241.902 165.148 241.902 165.87 242.112 166.58C242.507 167.977 243.567 169.129 244.649 169.164C245.173 169.164 245.545 168.92 245.72 168.698C245.871 168.477 245.871 168.314 245.848 168.303Z" fill="#EB996E"/>
<path d="M244.079 171.201C244.044 171.178 243.846 171.574 244.032 172.19C244.125 172.481 244.323 172.866 244.766 173.052C245.208 173.226 245.732 173.098 246.139 172.819C246.547 172.551 246.861 172.086 246.838 171.62C246.826 171.166 246.616 170.805 246.384 170.584C245.906 170.13 245.452 170.177 245.464 170.212C245.452 170.27 245.837 170.316 246.197 170.759C246.372 170.968 246.512 171.271 246.5 171.62C246.5 171.958 246.267 172.284 245.93 172.516C245.592 172.749 245.185 172.842 244.882 172.726C244.579 172.621 244.382 172.33 244.265 172.086C244.056 171.585 244.137 171.213 244.079 171.201Z" fill="#8A84FF"/>
<path d="M281.408 141.577C279.977 139.761 277.777 138.725 275.553 138.085C273.33 137.445 271.025 137.142 268.814 136.479C263.727 134.966 259.257 131.485 256.534 126.934C259.56 124.315 263.913 123.489 267.824 124.373C271.724 125.258 275.169 127.749 277.625 130.903C280.081 134.069 281.606 137.876 282.503 141.775" fill="url(#paint68_linear_7_66)"/>
<path d="M239.842 138.306C243.858 132.114 253.019 127.039 260.352 127.714C260.771 133.872 257.896 141.589 255.067 147.071C252.215 152.589 251.75 161.167 242.496 160.516C241.856 160.469 241.309 161.167 240.703 160.993C240.18 160.83 239.842 160.353 239.563 159.887C235.594 153.415 235.71 144.674 239.842 138.306Z" fill="url(#paint69_linear_7_66)"/>
<path d="M260.201 128.191C260.247 128.191 260.201 128.773 260.096 129.809C259.991 130.845 259.817 132.347 259.561 134.186C259.037 137.864 258.245 142.997 256.429 148.422C255.51 151.134 254.404 153.636 253.182 155.79C252.018 157.955 250.598 159.864 248.828 160.725C247.059 161.598 245.325 161.249 244.429 160.702C243.963 160.422 243.672 160.12 243.509 159.887C243.346 159.654 243.288 159.526 243.311 159.515C243.358 159.468 243.637 160.027 244.545 160.492C245.418 160.946 247.036 161.191 248.631 160.341C250.249 159.503 251.564 157.675 252.693 155.51C253.869 153.369 254.939 150.889 255.847 148.212C257.64 142.846 258.501 137.759 259.13 134.104C259.421 132.358 259.665 130.903 259.852 129.751C260.049 128.75 260.166 128.18 260.201 128.191Z" fill="url(#paint70_linear_7_66)"/>
<path d="M183.4 178.441C183.377 178.441 183.33 178.197 183.237 177.719C183.19 177.242 183.144 176.509 183.353 175.601C183.551 174.693 183.97 173.622 184.762 172.551C185.565 171.515 186.717 170.444 188.324 169.886C189.918 169.257 191.851 169.478 193.701 169.886C195.552 170.282 197.612 170.712 199.556 169.909C201.5 169.152 203.095 167.453 204.189 165.451C205.33 163.449 205.853 161.086 206.249 158.642C206.645 156.197 206.936 153.764 207.634 151.483C208.321 149.201 209.474 147.153 210.882 145.477C213.699 142.089 217.459 140.25 220.683 139.692C223.942 139.098 226.654 139.529 228.4 140.041C229.285 140.297 229.948 140.565 230.379 140.762C230.81 140.972 231.031 141.088 231.031 141.112C231.008 141.17 230.1 140.704 228.342 140.274C226.596 139.843 223.93 139.482 220.764 140.111C217.622 140.716 214.013 142.532 211.313 145.838C209.962 147.467 208.857 149.446 208.205 151.658C207.53 153.869 207.25 156.279 206.843 158.746C206.447 161.191 205.9 163.658 204.701 165.742C203.56 167.825 201.873 169.63 199.754 170.433C198.707 170.84 197.589 170.98 196.553 170.887C195.506 170.805 194.528 170.584 193.597 170.375C191.746 169.944 189.965 169.723 188.463 170.282C186.95 170.782 185.821 171.771 185.03 172.749C184.25 173.75 183.807 174.775 183.586 175.648C183.132 177.417 183.493 178.441 183.4 178.441Z" fill="url(#paint71_linear_7_66)"/>
<path d="M232.532 139.47C232.497 139.459 232.672 139.051 233.068 138.388C233.463 137.724 234.15 136.817 235.151 135.839C237.13 133.872 240.587 131.858 244.766 130.997C248.945 130.147 252.821 130.368 255.556 130.589C256.93 130.706 258.035 130.845 258.804 130.95C259.572 131.055 259.991 131.148 259.979 131.183C259.968 131.276 258.268 131.148 255.521 131.008C252.786 130.892 248.968 130.752 244.882 131.579C240.808 132.417 237.433 134.302 235.431 136.141C233.405 137.981 232.637 139.552 232.532 139.47Z" fill="url(#paint72_linear_7_66)"/>
<path d="M242.205 128.564C242.182 128.494 243.195 128.04 244.941 127.563C246.675 127.097 249.155 126.666 251.913 126.643C253.287 126.655 254.602 126.69 255.801 126.922C257 127.155 258.059 127.691 258.664 128.436C259.281 129.157 259.503 129.937 259.491 130.461C259.491 130.985 259.328 131.253 259.305 131.241C259.258 131.229 259.328 130.95 259.258 130.484C259.2 130.019 258.944 129.344 258.35 128.727C257.768 128.11 256.814 127.667 255.696 127.481C254.567 127.283 253.263 127.26 251.913 127.248C249.213 127.26 246.768 127.621 245.034 127.97C243.3 128.331 242.24 128.645 242.205 128.564Z" fill="url(#paint73_linear_7_66)"/>
<path d="M229.646 167.662C229.623 167.674 229.553 167.511 229.448 167.197C229.332 166.883 229.204 166.405 229.134 165.765C228.971 164.508 229.122 162.576 230.135 160.504C231.101 158.432 232.893 156.255 235.373 154.544C237.829 152.787 240.82 151.401 243.812 149.749C249.841 146.489 254.02 141.694 256.395 137.934C257.594 136.048 258.397 134.419 258.909 133.266C259.421 132.126 259.677 131.474 259.724 131.497C259.747 131.509 259.7 131.672 259.607 131.986C259.502 132.3 259.363 132.777 259.13 133.359C258.688 134.535 257.931 136.223 256.767 138.155C254.462 142.02 250.237 146.955 244.114 150.272C241.1 151.937 238.12 153.299 235.699 154.987C233.254 156.639 231.508 158.7 230.519 160.678C229.495 162.657 229.285 164.496 229.378 165.73C229.448 166.976 229.716 167.639 229.646 167.662Z" fill="url(#paint74_linear_7_66)"/>
<path d="M257.244 214.583C257.151 214.583 257.151 213.384 256.837 211.51C256.522 209.636 255.789 207.076 254.334 204.561C252.926 202.024 251.005 200.126 249.271 199.405C247.525 198.648 246.303 199.056 246.291 198.928C246.279 198.904 246.559 198.765 247.117 198.706C247.664 198.637 248.491 198.683 249.422 199.021C251.308 199.696 253.403 201.663 254.835 204.27C256.325 206.854 257.011 209.52 257.232 211.452C257.465 213.384 257.314 214.583 257.244 214.583Z" fill="url(#paint75_linear_7_66)"/>
<path d="M261.295 194.272L288.858 215.34L280.943 190.884L287.625 194.307C287.625 194.307 299.544 216.353 303.327 227.446C305.178 232.87 306.388 238.702 306.609 240.692C307.494 248.654 303.048 257.582 303.048 257.582L306.865 286.286C307.401 289.394 305.376 292.374 304.025 292.374L260.876 286.588C255.254 285.483 252.937 282.538 253.287 279.29L253.927 273.261L235.501 211.545C234.406 215.189 233.289 202.676 241.519 199.661C244.999 198.381 255.999 193.166 261.295 194.272Z" fill="#BAB7FF"/>
<path d="M292.164 206.272C292.176 206.261 292.304 206.412 292.513 206.715C292.758 207.076 293.049 207.506 293.41 208.03C294.178 209.182 295.272 210.847 296.564 212.954C299.137 217.156 302.652 223.104 304.945 230.344C307.238 237.596 307.331 244.673 306.237 249.515C305.713 251.948 305.026 253.845 304.433 255.102C304.165 255.742 303.874 256.196 303.711 256.522C303.536 256.837 303.432 257 303.42 257C303.374 256.976 303.711 256.29 304.223 255.021C304.747 253.752 305.376 251.855 305.841 249.445C306.807 244.65 306.656 237.689 304.398 230.53C302.128 223.372 298.694 217.435 296.215 213.187C294.981 211.126 293.968 209.439 293.212 208.17C292.886 207.623 292.63 207.169 292.409 206.796C292.234 206.459 292.153 206.284 292.164 206.272Z" fill="url(#paint76_linear_7_66)"/>
<path d="M296.529 282.13C295.831 283.422 295.191 284.843 295.342 286.298C295.4 286.798 295.715 287.403 296.215 287.322C296.529 287.275 296.727 286.961 296.879 286.682C299.637 281.723 302.256 277.498 305.003 272.539L304.875 271.561C301.546 274.471 298.636 278.254 296.529 282.13Z" fill="#8A84FF"/>
<path d="M295.808 270.316C298.543 270.595 301.919 270.258 304.642 269.943L304.573 269.443C302.07 268.372 298.974 267.243 296.308 266.696C293.643 266.149 290.791 266.184 288.3 267.278C290.337 269.128 293.084 270.036 295.808 270.316Z" fill="#8A84FF"/>
<path d="M296.029 260.573C298.706 262.831 301.651 265.299 304.328 267.557L302.501 264.228C300.533 261.283 298.473 258.385 295.703 256.185C295.377 255.929 295.028 255.673 294.62 255.568C294.213 255.463 293.736 255.533 293.468 255.859C293.165 256.208 293.189 256.732 293.317 257.174C293.712 258.583 294.9 259.619 296.029 260.573Z" fill="#8A84FF"/>
<path d="M271.713 251.936C273.994 253.461 276.322 253.95 278.871 254.951H279.383C277.672 252.832 275.95 250.702 273.843 248.98C271.736 247.257 269.198 245.942 266.486 245.744C267.418 248.328 269.42 250.423 271.713 251.936Z" fill="#8A84FF"/>
<path d="M277.823 244.975C279.139 248.223 280.419 251.331 281.735 254.578L281.839 251.238C281.478 247.722 281.013 244.184 279.593 240.948C279.43 240.564 279.232 240.18 278.929 239.9C278.615 239.621 278.161 239.458 277.777 239.609C277.346 239.772 277.125 240.25 277.02 240.704C276.706 242.135 277.276 243.602 277.823 244.975Z" fill="#8A84FF"/>
<path d="M294.143 241.798C294.178 241.809 294.096 242.135 293.922 242.717C293.84 243.008 293.712 243.369 293.538 243.765C293.363 244.161 293.188 244.626 292.909 245.103C292.42 246.081 291.698 247.175 290.79 248.316C289.859 249.434 288.73 250.563 287.403 251.587C286.065 252.6 284.668 253.391 283.353 253.996C282.026 254.578 280.768 254.974 279.698 255.195C278.627 255.428 277.742 255.533 277.137 255.545C276.531 255.568 276.194 255.556 276.194 255.521C276.182 255.417 277.533 255.347 279.604 254.8C280.64 254.532 281.851 254.101 283.131 253.508C284.4 252.891 285.75 252.111 287.054 251.121C288.346 250.12 289.452 249.026 290.383 247.967C291.291 246.884 292.024 245.837 292.548 244.906C293.619 243.043 294.038 241.763 294.143 241.798Z" fill="url(#paint77_linear_7_66)"/>
<g opacity="0.3">
<path opacity="0.3" d="M273.494 255.94C277.521 258.687 282.34 258.746 286.496 256.15C290.639 253.554 292.653 249.073 293.177 244.556C289.999 250.272 282.375 255.94 273.494 255.94Z" fill="url(#paint78_linear_7_66)"/>
</g>
<g opacity="0.3">
<path opacity="0.3" d="M248.002 228.423L242.764 235.873C243.858 239.993 245.302 243.893 246.396 248.013C248.898 241.984 249.213 234.849 248.002 228.423Z" fill="url(#paint79_linear_7_66)"/>
</g>
<path d="M172.191 315.956L164.659 327.91L147.979 332.904C147.979 332.904 147.77 330.844 148.934 329.773C150.098 328.702 145.465 330.215 145.465 330.215L141.961 337.479C141.961 337.479 139.599 337.316 139.761 335.279C139.924 333.242 142.532 326.84 142.532 326.84L143.777 326.63C143.777 326.63 143.102 325 144.255 323.278C144.255 323.278 144.278 320.519 146.14 317.679C148.003 314.827 149.562 313.628 149.562 313.628L164.147 307.622L172.191 315.956Z" fill="#FFBE9D"/>
<path d="M160.516 325.222C160.586 325.35 158.223 326.712 155.08 327.899C151.949 329.098 149.272 329.633 149.237 329.505C149.202 329.354 151.786 328.586 154.882 327.398C158.002 326.223 160.446 325.082 160.516 325.222Z" fill="#EB996E"/>
<path d="M151.262 323.732C151.308 323.871 149.399 324.721 147.001 325.629C144.592 326.537 142.601 327.166 142.543 327.026C142.485 326.886 144.394 326.036 146.804 325.129C149.213 324.221 151.203 323.592 151.262 323.732Z" fill="#EB996E"/>
<path d="M151.041 320.088C151.087 320.24 149.481 320.775 147.619 321.683C145.756 322.579 144.336 323.499 144.243 323.371C144.15 323.266 145.465 322.114 147.386 321.194C149.306 320.263 151.017 319.949 151.041 320.088Z" fill="#EB996E"/>
<path d="M151.111 316.445C151.157 316.596 149.9 317.074 148.399 317.749C146.897 318.412 145.698 319.029 145.617 318.901C145.535 318.785 146.629 317.935 148.177 317.248C149.714 316.561 151.076 316.305 151.111 316.445Z" fill="#EB996E"/>
<path d="M250.062 200.802C250.109 200.755 250.993 201.523 252.111 203.036C253.228 204.55 254.497 206.866 255.265 209.66C256.01 212.453 256.092 215.095 255.882 216.97C255.684 218.844 255.3 219.949 255.242 219.938C255.137 219.914 255.37 218.785 255.463 216.946C255.556 215.107 255.416 212.546 254.683 209.834C253.938 207.122 252.774 204.841 251.762 203.304C250.749 201.733 249.981 200.871 250.062 200.802Z" fill="url(#paint80_linear_7_66)"/>
<path d="M244.976 199.277C248.817 199.265 252.344 202.827 252.681 206.657C253.077 211.196 253.124 217.924 250.865 223.197C247.106 231.997 208.95 277.253 208.95 277.253L172.179 315.968L162.704 306.481C162.704 306.481 182.259 274.541 184.902 270.688C190.419 262.645 204.305 248.479 209.811 239.074C215.317 229.669 227.632 212.43 231.345 208.67C235.128 204.817 238.19 199.288 244.976 199.277Z" fill="#BAB7FF"/>
<path d="M222.231 243.357C220.741 243.567 219.182 243.893 218.076 244.917C217.692 245.266 217.389 245.895 217.761 246.256C217.994 246.489 218.367 246.454 218.693 246.419C224.454 245.674 229.786 245.231 235.536 244.498L235.978 243.823C231.566 242.834 226.701 242.74 222.231 243.357Z" fill="#8A84FF"/>
<path d="M231.532 235.582C232.963 238.003 235.035 240.249 236.944 242.31L237.27 241.774C236.642 239.062 235.99 236.327 234.826 233.813C233.65 231.287 231.904 228.959 229.483 227.562C229.18 230.355 230.1 233.172 231.532 235.582Z" fill="#8A84FF"/>
<path d="M239.691 229.401C239.459 232.986 239.261 236.408 239.028 239.993L240.611 236.955C241.833 233.545 242.985 230.088 243.113 226.468C243.125 226.037 243.125 225.595 242.962 225.199C242.799 224.803 242.45 224.454 242.031 224.419C241.565 224.384 241.146 224.722 240.855 225.094C239.924 226.293 239.784 227.899 239.691 229.401Z" fill="#8A84FF"/>
<path d="M247.979 227.678C247.99 227.69 247.909 227.865 247.711 228.179C247.478 228.551 247.187 228.994 246.849 229.541C246.081 230.705 244.929 232.369 243.462 234.383C240.541 238.422 236.35 243.893 231.613 249.853C226.875 255.801 222.499 261.12 219.274 264.926C217.668 266.824 216.341 268.36 215.421 269.396C214.991 269.873 214.63 270.257 214.339 270.583C214.083 270.851 213.943 270.979 213.932 270.968C213.92 270.956 214.025 270.793 214.246 270.502C214.514 270.164 214.839 269.745 215.247 269.245C216.178 268.092 217.435 266.544 218.96 264.659C222.138 260.713 226.421 255.37 231.159 249.48C235.885 243.532 240.122 238.108 243.136 234.139C244.58 232.195 245.779 230.6 246.663 229.413C247.047 228.901 247.362 228.47 247.618 228.121C247.839 227.818 247.967 227.667 247.979 227.678Z" fill="url(#paint81_linear_7_66)"/>
<path d="M187.485 267.208C191.792 268.558 196.634 269.059 201.151 268.814C202.652 268.733 204.235 268.535 205.423 267.615C205.83 267.301 206.191 266.696 205.853 266.312C205.644 266.067 205.271 266.055 204.945 266.079C199.149 266.335 193.794 266.323 187.997 266.579" fill="#8A84FF"/>
<path d="M191.222 275.775C190 273.249 188.125 270.828 186.391 268.616L186.03 269.128C186.438 271.887 186.845 274.657 187.8 277.276C188.754 279.895 190.302 282.363 192.595 283.958C193.119 281.188 192.444 278.301 191.222 275.775Z" fill="#8A84FF"/>
<path d="M182.597 282.305C183.132 278.755 183.621 275.356 184.156 271.806L182.329 274.692C180.816 277.987 179.384 281.327 178.953 284.924C178.907 285.343 178.872 285.785 178.988 286.193C179.116 286.6 179.431 286.973 179.861 287.042C180.327 287.124 180.769 286.821 181.095 286.472C182.108 285.378 182.375 283.795 182.597 282.305Z" fill="#8A84FF"/>
<path d="M463.854 73.1228L469.243 80.0835L471.106 91.5373L475.18 88.6739L479.254 94.7383L515.361 60.54L463.854 73.1228Z" fill="#403BA2"/>
<path opacity="0.3" d="M475.121 88.7434L473.282 90.0005L471.979 83.5869L475.121 88.7434Z" fill="url(#paint82_linear_7_66)"/>
<path opacity="0.3" d="M469.243 80.0832L515.361 60.5397L472.258 82.935L471.106 91.537L469.243 80.0832Z" fill="url(#paint83_linear_7_66)"/>
<path d="M515.361 60.5397C515.373 60.5629 515.187 60.6793 514.826 60.8889C514.407 61.1217 513.871 61.4243 513.231 61.7851C511.764 62.5767 509.762 63.6592 507.33 64.9745C502.255 67.6517 495.364 71.2834 487.751 75.2992C481.931 78.3139 476.53 81.1075 472.049 83.4355L472.153 83.098C474.132 86.6947 475.936 89.5815 477.217 91.5835C477.834 92.5264 478.323 93.2946 478.707 93.8883C479.056 94.4237 479.231 94.7147 479.207 94.7263C479.184 94.738 478.974 94.4819 478.59 93.9814C478.206 93.4809 477.659 92.7243 476.984 91.7465C475.634 89.791 473.76 86.9392 471.723 83.3541L471.595 83.1329L471.828 83.0165C476.297 80.6652 481.675 77.8367 487.483 74.787C495.119 70.8411 502.045 67.2676 507.143 64.6253C509.611 63.3798 511.636 62.3555 513.138 61.6105C513.801 61.2846 514.348 61.0285 514.779 60.819C515.152 60.5979 515.349 60.5164 515.361 60.5397Z" fill="url(#paint84_linear_7_66)"/>
<path d="M515.361 60.5396C515.431 60.691 505.095 65.2422 492.279 70.7014C479.463 76.1605 469.022 80.4557 468.953 80.3044C468.883 80.153 479.219 75.6018 492.035 70.1426C504.862 64.6835 515.303 60.3883 515.361 60.5396Z" fill="url(#paint85_linear_7_66)"/>
<path d="M471.106 91.537C470.943 91.5254 470.989 89.6397 471.222 87.3466C471.455 85.0419 471.769 83.1911 471.944 83.2144C472.107 83.226 472.06 85.1117 471.827 87.4048C471.595 89.6979 471.28 91.5486 471.106 91.537Z" fill="url(#paint86_linear_7_66)"/>
<path d="M426.839 119.869C426.874 120.032 426.245 120.253 425.442 120.369C424.639 120.474 423.975 120.427 423.964 120.265C423.952 120.102 424.58 119.88 425.36 119.764C426.14 119.659 426.804 119.706 426.839 119.869Z" fill="url(#paint87_linear_7_66)"/>
<path d="M437.21 115.224C437.315 115.352 436.36 116.249 434.975 117.063C433.59 117.878 432.344 118.274 432.275 118.123C432.205 117.971 433.322 117.343 434.661 116.54C436.011 115.748 437.105 115.085 437.21 115.224Z" fill="url(#paint88_linear_7_66)"/>
<path d="M444.717 106.692C444.857 106.762 444.368 107.984 443.449 109.288C442.529 110.603 441.54 111.465 441.423 111.36C441.295 111.244 442.052 110.219 442.948 108.939C443.844 107.67 444.566 106.611 444.717 106.692Z" fill="url(#paint89_linear_7_66)"/>
<path d="M447.453 95.7274C447.616 95.7041 447.895 97.0078 447.709 98.6141C447.534 100.22 447.022 101.443 446.871 101.396C446.708 101.349 446.941 100.092 447.104 98.5559C447.278 97.0078 447.278 95.7506 447.453 95.7274Z" fill="url(#paint90_linear_7_66)"/>
<path d="M440.527 87.8588C440.527 87.7074 441.912 87.6143 443.402 88.3826C444.915 89.1392 445.591 90.3846 445.474 90.4428C445.311 90.5709 444.485 89.5931 443.123 88.9296C441.773 88.2312 440.504 88.045 440.527 87.8588Z" fill="url(#paint91_linear_7_66)"/>
<path d="M431.448 93.411C431.297 93.3761 431.576 92.0259 432.624 90.7455C433.671 89.4418 434.963 88.9413 435.021 89.0809C435.114 89.2323 434.044 89.9423 433.089 91.1296C432.135 92.3052 431.611 93.4692 431.448 93.411Z" fill="url(#paint92_linear_7_66)"/>
<path d="M433.322 104.19C433.229 104.283 432.204 103.398 431.529 101.897C430.854 100.407 430.808 99.0564 430.959 99.0448C431.134 99.0215 431.436 100.255 432.076 101.652C432.717 103.049 433.473 104.062 433.322 104.19Z" fill="url(#paint93_linear_7_66)"/>
<path d="M443.286 109.218C443.274 109.381 441.947 109.428 440.388 108.997C438.828 108.566 437.71 107.833 437.792 107.693C437.873 107.542 439.049 108.008 440.55 108.415C442.052 108.834 443.309 109.044 443.286 109.218Z" fill="url(#paint94_linear_7_66)"/>
<path d="M454.355 106.89C454.425 107.03 453.331 107.752 451.83 108.299C450.316 108.846 449.013 108.974 448.978 108.811C448.943 108.648 450.153 108.252 451.62 107.728C453.087 107.204 454.286 106.739 454.355 106.89Z" fill="url(#paint95_linear_7_66)"/>
<path d="M463.644 100.267C463.761 100.395 462.853 101.303 461.619 102.316C460.385 103.317 459.314 104.027 459.209 103.887C459.116 103.747 460.012 102.839 461.235 101.838C462.457 100.849 463.539 100.139 463.644 100.267Z" fill="url(#paint96_linear_7_66)"/>
<path d="M469.325 93.7952C469.476 93.865 469.29 94.5401 468.801 95.2036C468.324 95.8671 467.788 96.2861 467.66 96.1814C467.532 96.0766 467.846 95.4946 468.3 94.8544C468.766 94.2142 469.173 93.7253 469.325 93.7952Z" fill="url(#paint97_linear_7_66)"/>
<defs>
<linearGradient id="paint0_linear_7_66" x1="378.32" y1="433.085" x2="428.334" y2="446.152" gradientUnits="userSpaceOnUse">
<stop stop-color="#4F4F4F"/>
<stop offset="0.835258" stop-color="#292929"/>
</linearGradient>
<linearGradient id="paint1_linear_7_66" x1="423.183" y1="385.704" x2="433.694" y2="386.052" gradientUnits="userSpaceOnUse">
<stop stop-color="#4F4F4F"/>
<stop offset="0.835258" stop-color="#292929"/>
</linearGradient>
<linearGradient id="paint2_linear_7_66" x1="399.809" y1="498.972" x2="442.932" y2="531.807" gradientUnits="userSpaceOnUse">
<stop stop-color="#4F4F4F"/>
<stop offset="0.835258" stop-color="#292929"/>
</linearGradient>
<linearGradient id="paint3_linear_7_66" x1="413.278" y1="529.22" x2="438.057" y2="546.305" gradientUnits="userSpaceOnUse">
<stop stop-color="#4F4F4F"/>
<stop offset="0.835258" stop-color="#292929"/>
</linearGradient>
<linearGradient id="paint4_linear_7_66" x1="407.765" y1="535.816" x2="407.793" y2="536.98" gradientUnits="userSpaceOnUse">
<stop stop-color="#4F4F4F"/>
<stop offset="0.835258" stop-color="#292929"/>
</linearGradient>
<linearGradient id="paint5_linear_7_66" x1="404.805" y1="519.929" x2="404.829" y2="521.091" gradientUnits="userSpaceOnUse">
<stop stop-color="#4F4F4F"/>
<stop offset="0.835258" stop-color="#292929"/>
</linearGradient>
<linearGradient id="paint6_linear_7_66" x1="405.73" y1="525.411" x2="405.755" y2="526.573" gradientUnits="userSpaceOnUse">
<stop stop-color="#4F4F4F"/>
<stop offset="0.835258" stop-color="#292929"/>
</linearGradient>
<linearGradient id="paint7_linear_7_66" x1="407.342" y1="530.905" x2="407.369" y2="532.067" gradientUnits="userSpaceOnUse">
<stop stop-color="#4F4F4F"/>
<stop offset="0.835258" stop-color="#292929"/>
</linearGradient>
<linearGradient id="paint8_linear_7_66" x1="403.869" y1="514.597" x2="403.892" y2="515.76" gradientUnits="userSpaceOnUse">
<stop stop-color="#4F4F4F"/>
<stop offset="0.835258" stop-color="#292929"/>
</linearGradient>
<linearGradient id="paint9_linear_7_66" x1="403.77" y1="510.208" x2="403.793" y2="511.373" gradientUnits="userSpaceOnUse">
<stop stop-color="#4F4F4F"/>
<stop offset="0.835258" stop-color="#292929"/>
</linearGradient>
<linearGradient id="paint10_linear_7_66" x1="72.0267" y1="551.047" x2="72.0305" y2="552.422" gradientUnits="userSpaceOnUse">
<stop stop-color="#4F4F4F"/>
<stop offset="0.835258" stop-color="#292929"/>
</linearGradient>
<linearGradient id="paint11_linear_7_66" x1="285.759" y1="542.568" x2="287.312" y2="542.941" gradientUnits="userSpaceOnUse">
<stop stop-color="#4F4F4F"/>
<stop offset="0.835258" stop-color="#292929"/>
</linearGradient>
<linearGradient id="paint12_linear_7_66" x1="276.06" y1="539.052" x2="278.644" y2="540.775" gradientUnits="userSpaceOnUse">
<stop stop-color="#4F4F4F"/>
<stop offset="0.835258" stop-color="#292929"/>
</linearGradient>
<linearGradient id="paint13_linear_7_66" x1="281.251" y1="541.025" x2="283.635" y2="541.938" gradientUnits="userSpaceOnUse">
<stop stop-color="#4F4F4F"/>
<stop offset="0.835258" stop-color="#292929"/>
</linearGradient>
<linearGradient id="paint14_linear_7_66" x1="261.719" y1="547.873" x2="263.337" y2="555.816" gradientUnits="userSpaceOnUse">
<stop stop-color="#4F4F4F"/>
<stop offset="0.835258" stop-color="#292929"/>
</linearGradient>
<linearGradient id="paint15_linear_7_66" x1="106.888" y1="436.863" x2="123.577" y2="439.945" gradientUnits="userSpaceOnUse">
<stop stop-color="#4F4F4F"/>
<stop offset="0.835258" stop-color="#292929"/>
</linearGradient>
<linearGradient id="paint16_linear_7_66" x1="121.916" y1="448.136" x2="124.731" y2="449.773" gradientUnits="userSpaceOnUse">
<stop stop-color="#4F4F4F"/>
<stop offset="0.835258" stop-color="#292929"/>
</linearGradient>
<linearGradient id="paint17_linear_7_66" x1="121.532" y1="454.035" x2="123.568" y2="456.071" gradientUnits="userSpaceOnUse">
<stop stop-color="#4F4F4F"/>
<stop offset="0.835258" stop-color="#292929"/>
</linearGradient>
<linearGradient id="paint18_linear_7_66" x1="121.488" y1="459.4" x2="122.493" y2="461.127" gradientUnits="userSpaceOnUse">
<stop stop-color="#4F4F4F"/>
<stop offset="0.835258" stop-color="#292929"/>
</linearGradient>
<linearGradient id="paint19_linear_7_66" x1="136.102" y1="291.68" x2="275.404" y2="353.184" gradientUnits="userSpaceOnUse">
<stop stop-color="#4F4F4F"/>
<stop offset="0.835258" stop-color="#292929"/>
</linearGradient>
<linearGradient id="paint20_linear_7_66" x1="359.402" y1="565.189" x2="283.518" y2="581.957" gradientUnits="userSpaceOnUse">
<stop stop-color="#4F4F4F"/>
<stop offset="0.835258" stop-color="#292929"/>
</linearGradient>
<linearGradient id="paint21_linear_7_66" x1="254.401" y1="322.598" x2="285.301" y2="328.934" gradientUnits="userSpaceOnUse">
<stop stop-color="#4F4F4F"/>
<stop offset="0.835258" stop-color="#292929"/>
</linearGradient>
<linearGradient id="paint22_linear_7_66" x1="128.455" y1="430.72" x2="129.986" y2="432.014" gradientUnits="userSpaceOnUse">
<stop stop-color="#4F4F4F"/>
<stop offset="0.835258" stop-color="#292929"/>
</linearGradient>
<linearGradient id="paint23_linear_7_66" x1="136.443" y1="425.775" x2="139.356" y2="428.354" gradientUnits="userSpaceOnUse">
<stop stop-color="#4F4F4F"/>
<stop offset="0.835258" stop-color="#292929"/>
</linearGradient>
<linearGradient id="paint24_linear_7_66" x1="146.86" y1="420.701" x2="149.795" y2="423.278" gradientUnits="userSpaceOnUse">
<stop stop-color="#4F4F4F"/>
<stop offset="0.835258" stop-color="#292929"/>
</linearGradient>
<linearGradient id="paint25_linear_7_66" x1="157.265" y1="415.603" x2="160.199" y2="418.167" gradientUnits="userSpaceOnUse">
<stop stop-color="#4F4F4F"/>
<stop offset="0.835258" stop-color="#292929"/>
</linearGradient>
<linearGradient id="paint26_linear_7_66" x1="167.625" y1="410.449" x2="170.591" y2="413.008" gradientUnits="userSpaceOnUse">
<stop stop-color="#4F4F4F"/>
<stop offset="0.835258" stop-color="#292929"/>
</linearGradient>
<linearGradient id="paint27_linear_7_66" x1="177.984" y1="405.247" x2="180.971" y2="407.796" gradientUnits="userSpaceOnUse">
<stop stop-color="#4F4F4F"/>
<stop offset="0.835258" stop-color="#292929"/>
</linearGradient>
<linearGradient id="paint28_linear_7_66" x1="188.318" y1="399.957" x2="191.343" y2="402.488" gradientUnits="userSpaceOnUse">
<stop stop-color="#4F4F4F"/>
<stop offset="0.835258" stop-color="#292929"/>
</linearGradient>
<linearGradient id="paint29_linear_7_66" x1="198.582" y1="394.546" x2="201.667" y2="397.043" gradientUnits="userSpaceOnUse">
<stop stop-color="#4F4F4F"/>
<stop offset="0.835258" stop-color="#292929"/>
</linearGradient>
<linearGradient id="paint30_linear_7_66" x1="208.773" y1="388.865" x2="211.984" y2="391.263" gradientUnits="userSpaceOnUse">
<stop stop-color="#4F4F4F"/>
<stop offset="0.835258" stop-color="#292929"/>
</linearGradient>
<linearGradient id="paint31_linear_7_66" x1="218.379" y1="380.409" x2="219.923" y2="380.607" gradientUnits="userSpaceOnUse">
<stop stop-color="#4F4F4F"/>
<stop offset="0.835258" stop-color="#292929"/>
</linearGradient>
<linearGradient id="paint32_linear_7_66" x1="221.097" y1="369.155" x2="222.598" y2="369.334" gradientUnits="userSpaceOnUse">
<stop stop-color="#4F4F4F"/>
<stop offset="0.835258" stop-color="#292929"/>
</linearGradient>
<linearGradient id="paint33_linear_7_66" x1="223.98" y1="357.966" x2="225.564" y2="358.167" gradientUnits="userSpaceOnUse">
<stop stop-color="#4F4F4F"/>
<stop offset="0.835258" stop-color="#292929"/>
</linearGradient>
<linearGradient id="paint34_linear_7_66" x1="227.035" y1="346.804" x2="228.671" y2="347.018" gradientUnits="userSpaceOnUse">
<stop stop-color="#4F4F4F"/>
<stop offset="0.835258" stop-color="#292929"/>
</linearGradient>
<linearGradient id="paint35_linear_7_66" x1="230.183" y1="335.674" x2="231.881" y2="335.907" gradientUnits="userSpaceOnUse">
<stop stop-color="#4F4F4F"/>
<stop offset="0.835258" stop-color="#292929"/>
</linearGradient>
<linearGradient id="paint36_linear_7_66" x1="233.473" y1="324.58" x2="235.231" y2="324.831" gradientUnits="userSpaceOnUse">
<stop stop-color="#4F4F4F"/>
<stop offset="0.835258" stop-color="#292929"/>
</linearGradient>
<linearGradient id="paint37_linear_7_66" x1="236.982" y1="313.663" x2="239.077" y2="314.032" gradientUnits="userSpaceOnUse">
<stop stop-color="#4F4F4F"/>
<stop offset="0.835258" stop-color="#292929"/>
</linearGradient>
<linearGradient id="paint38_linear_7_66" x1="242.156" y1="303.874" x2="245.163" y2="304.779" gradientUnits="userSpaceOnUse">
<stop stop-color="#4F4F4F"/>
<stop offset="0.835258" stop-color="#292929"/>
</linearGradient>
<linearGradient id="paint39_linear_7_66" x1="248.792" y1="294.507" x2="251.928" y2="295.533" gradientUnits="userSpaceOnUse">
<stop stop-color="#4F4F4F"/>
<stop offset="0.835258" stop-color="#292929"/>
</linearGradient>
<linearGradient id="paint40_linear_7_66" x1="255.645" y1="287.445" x2="257.285" y2="288.014" gradientUnits="userSpaceOnUse">
<stop stop-color="#4F4F4F"/>
<stop offset="0.835258" stop-color="#292929"/>
</linearGradient>
<linearGradient id="paint41_linear_7_66" x1="261.872" y1="370.695" x2="262.514" y2="370.758" gradientUnits="userSpaceOnUse">
<stop stop-color="#4F4F4F"/>
<stop offset="0.835258" stop-color="#292929"/>
</linearGradient>
<linearGradient id="paint42_linear_7_66" x1="262.624" y1="379.792" x2="263.376" y2="379.834" gradientUnits="userSpaceOnUse">
<stop stop-color="#4F4F4F"/>
<stop offset="0.835258" stop-color="#292929"/>
</linearGradient>
<linearGradient id="paint43_linear_7_66" x1="263.48" y1="391.817" x2="264.185" y2="391.853" gradientUnits="userSpaceOnUse">
<stop stop-color="#4F4F4F"/>
<stop offset="0.835258" stop-color="#292929"/>
</linearGradient>
<linearGradient id="paint44_linear_7_66" x1="264.146" y1="403.841" x2="264.8" y2="403.872" gradientUnits="userSpaceOnUse">
<stop stop-color="#4F4F4F"/>
<stop offset="0.835258" stop-color="#292929"/>
</linearGradient>
<linearGradient id="paint45_linear_7_66" x1="264.528" y1="415.888" x2="265.137" y2="415.916" gradientUnits="userSpaceOnUse">
<stop stop-color="#4F4F4F"/>
<stop offset="0.835258" stop-color="#292929"/>
</linearGradient>
<linearGradient id="paint46_linear_7_66" x1="264.54" y1="427.936" x2="265.148" y2="427.963" gradientUnits="userSpaceOnUse">
<stop stop-color="#4F4F4F"/>
<stop offset="0.835258" stop-color="#292929"/>
</linearGradient>
<linearGradient id="paint47_linear_7_66" x1="264.14" y1="439.983" x2="264.808" y2="440.016" gradientUnits="userSpaceOnUse">
<stop stop-color="#4F4F4F"/>
<stop offset="0.835258" stop-color="#292929"/>
</linearGradient>
<linearGradient id="paint48_linear_7_66" x1="263.333" y1="452.018" x2="264.09" y2="452.06" gradientUnits="userSpaceOnUse">
<stop stop-color="#4F4F4F"/>
<stop offset="0.835258" stop-color="#292929"/>
</linearGradient>
<linearGradient id="paint49_linear_7_66" x1="262.331" y1="464.019" x2="263.116" y2="464.064" gradientUnits="userSpaceOnUse">
<stop stop-color="#4F4F4F"/>
<stop offset="0.835258" stop-color="#292929"/>
</linearGradient>
<linearGradient id="paint50_linear_7_66" x1="261.362" y1="476.043" x2="262.101" y2="476.083" gradientUnits="userSpaceOnUse">
<stop stop-color="#4F4F4F"/>
<stop offset="0.835258" stop-color="#292929"/>
</linearGradient>
<linearGradient id="paint51_linear_7_66" x1="260.661" y1="488.068" x2="261.327" y2="488.101" gradientUnits="userSpaceOnUse">
<stop stop-color="#4F4F4F"/>
<stop offset="0.835258" stop-color="#292929"/>
</linearGradient>
<linearGradient id="paint52_linear_7_66" x1="260.433" y1="500.116" x2="261.036" y2="500.143" gradientUnits="userSpaceOnUse">
<stop stop-color="#4F4F4F"/>
<stop offset="0.835258" stop-color="#292929"/>
</linearGradient>
<linearGradient id="paint53_linear_7_66" x1="260.819" y1="512.162" x2="261.566" y2="512.203" gradientUnits="userSpaceOnUse">
<stop stop-color="#4F4F4F"/>
<stop offset="0.835258" stop-color="#292929"/>
</linearGradient>
<linearGradient id="paint54_linear_7_66" x1="261.968" y1="524.015" x2="262.699" y2="524.098" gradientUnits="userSpaceOnUse">
<stop stop-color="#4F4F4F"/>
<stop offset="0.835258" stop-color="#292929"/>
</linearGradient>
<linearGradient id="paint55_linear_7_66" x1="248.793" y1="292.941" x2="264.39" y2="306.859" gradientUnits="userSpaceOnUse">
<stop stop-color="#4F4F4F"/>
<stop offset="0.835258" stop-color="#292929"/>
</linearGradient>
<linearGradient id="paint56_linear_7_66" x1="287.726" y1="294.059" x2="296.241" y2="295.627" gradientUnits="userSpaceOnUse">
<stop stop-color="#4F4F4F"/>
<stop offset="0.835258" stop-color="#292929"/>
</linearGradient>
<linearGradient id="paint57_linear_7_66" x1="289.567" y1="294.025" x2="292.499" y2="295.374" gradientUnits="userSpaceOnUse">
<stop stop-color="#4F4F4F"/>
<stop offset="0.835258" stop-color="#292929"/>
</linearGradient>
<linearGradient id="paint58_linear_7_66" x1="176.436" y1="143.769" x2="227.225" y2="167.783" gradientUnits="userSpaceOnUse">
<stop stop-color="#4F4F4F"/>
<stop offset="0.835258" stop-color="#292929"/>
</linearGradient>
<linearGradient id="paint59_linear_7_66" x1="233.949" y1="125.952" x2="282.143" y2="144.583" gradientUnits="userSpaceOnUse">
<stop stop-color="#4F4F4F"/>
<stop offset="0.835258" stop-color="#292929"/>
</linearGradient>
<linearGradient id="paint60_linear_7_66" x1="277.374" y1="149.034" x2="280.108" y2="150.267" gradientUnits="userSpaceOnUse">
<stop stop-color="#4F4F4F"/>
<stop offset="0.835258" stop-color="#292929"/>
</linearGradient>
<linearGradient id="paint61_linear_7_66" x1="273.751" y1="145.269" x2="277.193" y2="148.349" gradientUnits="userSpaceOnUse">
<stop stop-color="#4F4F4F"/>
<stop offset="0.835258" stop-color="#292929"/>
</linearGradient>
<linearGradient id="paint62_linear_7_66" x1="261.543" y1="153.656" x2="264.277" y2="154.889" gradientUnits="userSpaceOnUse">
<stop stop-color="#4F4F4F"/>
<stop offset="0.835258" stop-color="#292929"/>
</linearGradient>
<linearGradient id="paint63_linear_7_66" x1="256.958" y1="150.089" x2="259.913" y2="153.279" gradientUnits="userSpaceOnUse">
<stop stop-color="#4F4F4F"/>
<stop offset="0.835258" stop-color="#292929"/>
</linearGradient>
<linearGradient id="paint64_linear_7_66" x1="268.499" y1="149.7" x2="276.466" y2="151.792" gradientUnits="userSpaceOnUse">
<stop stop-color="#4F4F4F"/>
<stop offset="0.835258" stop-color="#292929"/>
</linearGradient>
<linearGradient id="paint65_linear_7_66" x1="267.84" y1="165.87" x2="272.268" y2="169.101" gradientUnits="userSpaceOnUse">
<stop stop-color="#4F4F4F"/>
<stop offset="0.835258" stop-color="#292929"/>
</linearGradient>
<linearGradient id="paint66_linear_7_66" x1="255.164" y1="146.213" x2="259.217" y2="150.073" gradientUnits="userSpaceOnUse">
<stop stop-color="#4F4F4F"/>
<stop offset="0.835258" stop-color="#292929"/>
</linearGradient>
<linearGradient id="paint67_linear_7_66" x1="272.109" y1="140.463" x2="275.001" y2="143.462" gradientUnits="userSpaceOnUse">
<stop stop-color="#4F4F4F"/>
<stop offset="0.835258" stop-color="#292929"/>
</linearGradient>
<linearGradient id="paint68_linear_7_66" x1="258.051" y1="125.001" x2="276.381" y2="136.789" gradientUnits="userSpaceOnUse">
<stop stop-color="#4F4F4F"/>
<stop offset="0.835258" stop-color="#292929"/>
</linearGradient>
<linearGradient id="paint69_linear_7_66" x1="238.049" y1="129.477" x2="259.619" y2="136.217" gradientUnits="userSpaceOnUse">
<stop stop-color="#4F4F4F"/>
<stop offset="0.835258" stop-color="#292929"/>
</linearGradient>
<linearGradient id="paint70_linear_7_66" x1="244.295" y1="129.998" x2="260.357" y2="133.608" gradientUnits="userSpaceOnUse">
<stop stop-color="#4F4F4F"/>
<stop offset="0.835258" stop-color="#292929"/>
</linearGradient>
<linearGradient id="paint71_linear_7_66" x1="185.993" y1="141.537" x2="222.992" y2="161.458" gradientUnits="userSpaceOnUse">
<stop stop-color="#4F4F4F"/>
<stop offset="0.835258" stop-color="#292929"/>
</linearGradient>
<linearGradient id="paint72_linear_7_66" x1="234.132" y1="130.885" x2="244.046" y2="144.047" gradientUnits="userSpaceOnUse">
<stop stop-color="#4F4F4F"/>
<stop offset="0.835258" stop-color="#292929"/>
</linearGradient>
<linearGradient id="paint73_linear_7_66" x1="243.215" y1="126.894" x2="247.841" y2="134.535" gradientUnits="userSpaceOnUse">
<stop stop-color="#4F4F4F"/>
<stop offset="0.835258" stop-color="#292929"/>
</linearGradient>
<linearGradient id="paint74_linear_7_66" x1="230.869" y1="133.473" x2="257.727" y2="143.474" gradientUnits="userSpaceOnUse">
<stop stop-color="#4F4F4F"/>
<stop offset="0.835258" stop-color="#292929"/>
</linearGradient>
<linearGradient id="paint75_linear_7_66" x1="246.937" y1="199.548" x2="257.035" y2="202.635" gradientUnits="userSpaceOnUse">
<stop stop-color="#4F4F4F"/>
<stop offset="0.835258" stop-color="#292929"/>
</linearGradient>
<linearGradient id="paint76_linear_7_66" x1="293.025" y1="209.044" x2="307.507" y2="210.894" gradientUnits="userSpaceOnUse">
<stop stop-color="#4F4F4F"/>
<stop offset="0.835258" stop-color="#292929"/>
</linearGradient>
<linearGradient id="paint77_linear_7_66" x1="277.243" y1="242.549" x2="290.726" y2="250.28" gradientUnits="userSpaceOnUse">
<stop stop-color="#4F4F4F"/>
<stop offset="0.835258" stop-color="#292929"/>
</linearGradient>
<linearGradient id="paint78_linear_7_66" x1="274.644" y1="245.294" x2="288.564" y2="254.216" gradientUnits="userSpaceOnUse">
<stop stop-color="#4F4F4F"/>
<stop offset="0.835258" stop-color="#292929"/>
</linearGradient>
<linearGradient id="paint79_linear_7_66" x1="243.11" y1="229.494" x2="248.916" y2="230.265" gradientUnits="userSpaceOnUse">
<stop stop-color="#4F4F4F"/>
<stop offset="0.835258" stop-color="#292929"/>
</linearGradient>
<linearGradient id="paint80_linear_7_66" x1="250.402" y1="201.845" x2="256.207" y2="202.635" gradientUnits="userSpaceOnUse">
<stop stop-color="#4F4F4F"/>
<stop offset="0.835258" stop-color="#292929"/>
</linearGradient>
<linearGradient id="paint81_linear_7_66" x1="215.921" y1="230.043" x2="246.268" y2="240.531" gradientUnits="userSpaceOnUse">
<stop stop-color="#4F4F4F"/>
<stop offset="0.835258" stop-color="#292929"/>
</linearGradient>
<linearGradient id="paint82_linear_7_66" x1="472.162" y1="83.9373" x2="475.159" y2="84.5825" gradientUnits="userSpaceOnUse">
<stop stop-color="#B9B9B9"/>
<stop offset="0.835258" stop-color="#DAD9D9"/>
</linearGradient>
<linearGradient id="paint83_linear_7_66" x1="471.938" y1="62.2335" x2="504.175" y2="83.3072" gradientUnits="userSpaceOnUse">
<stop stop-color="#B9B9B9"/>
<stop offset="0.835258" stop-color="#DAD9D9"/>
</linearGradient>
<linearGradient id="paint84_linear_7_66" x1="474.153" y1="62.4042" x2="507.326" y2="81.0624" gradientUnits="userSpaceOnUse">
<stop stop-color="#B9B9B9"/>
<stop offset="0.835258" stop-color="#DAD9D9"/>
</linearGradient>
<linearGradient id="paint85_linear_7_66" x1="471.664" y1="61.6162" x2="494.102" y2="84.7571" gradientUnits="userSpaceOnUse">
<stop stop-color="#B9B9B9"/>
<stop offset="0.835258" stop-color="#DAD9D9"/>
</linearGradient>
<linearGradient id="paint86_linear_7_66" x1="471.07" y1="83.669" x2="472.095" y2="83.7248" gradientUnits="userSpaceOnUse">
<stop stop-color="#B9B9B9"/>
<stop offset="0.835258" stop-color="#DAD9D9"/>
</linearGradient>
<linearGradient id="paint87_linear_7_66" x1="424.131" y1="119.747" x2="424.83" y2="120.979" gradientUnits="userSpaceOnUse">
<stop stop-color="#4F4F4F"/>
<stop offset="0.835258" stop-color="#292929"/>
</linearGradient>
<linearGradient id="paint88_linear_7_66" x1="432.561" y1="115.367" x2="435.758" y2="117.724" gradientUnits="userSpaceOnUse">
<stop stop-color="#4F4F4F"/>
<stop offset="0.835258" stop-color="#292929"/>
</linearGradient>
<linearGradient id="paint89_linear_7_66" x1="441.604" y1="106.944" x2="444.632" y2="107.891" gradientUnits="userSpaceOnUse">
<stop stop-color="#4F4F4F"/>
<stop offset="0.835258" stop-color="#292929"/>
</linearGradient>
<linearGradient id="paint90_linear_7_66" x1="446.871" y1="96.0369" x2="447.819" y2="96.1071" gradientUnits="userSpaceOnUse">
<stop stop-color="#4F4F4F"/>
<stop offset="0.835258" stop-color="#292929"/>
</linearGradient>
<linearGradient id="paint91_linear_7_66" x1="440.817" y1="87.9029" x2="443.812" y2="90.3218" gradientUnits="userSpaceOnUse">
<stop stop-color="#4F4F4F"/>
<stop offset="0.835258" stop-color="#292929"/>
</linearGradient>
<linearGradient id="paint92_linear_7_66" x1="431.621" y1="89.2963" x2="434.806" y2="90.4587" gradientUnits="userSpaceOnUse">
<stop stop-color="#4F4F4F"/>
<stop offset="0.835258" stop-color="#292929"/>
</linearGradient>
<linearGradient id="paint93_linear_7_66" x1="431.031" y1="99.326" x2="433.376" y2="99.8168" gradientUnits="userSpaceOnUse">
<stop stop-color="#4F4F4F"/>
<stop offset="0.835258" stop-color="#292929"/>
</linearGradient>
<linearGradient id="paint94_linear_7_66" x1="438.109" y1="107.755" x2="439.884" y2="110.322" gradientUnits="userSpaceOnUse">
<stop stop-color="#4F4F4F"/>
<stop offset="0.835258" stop-color="#292929"/>
</linearGradient>
<linearGradient id="paint95_linear_7_66" x1="449.292" y1="106.971" x2="451.551" y2="109.622" gradientUnits="userSpaceOnUse">
<stop stop-color="#4F4F4F"/>
<stop offset="0.835258" stop-color="#292929"/>
</linearGradient>
<linearGradient id="paint96_linear_7_66" x1="459.463" y1="100.452" x2="462.914" y2="102.3" gradientUnits="userSpaceOnUse">
<stop stop-color="#4F4F4F"/>
<stop offset="0.835258" stop-color="#292929"/>
</linearGradient>
<linearGradient id="paint97_linear_7_66" x1="467.733" y1="93.9201" x2="469.314" y2="94.4231" gradientUnits="userSpaceOnUse">
<stop stop-color="#4F4F4F"/>
<stop offset="0.835258" stop-color="#292929"/>
</linearGradient>
</defs>
</svg>
