<svg width="582" height="209" viewBox="0 0 582 209" fill="none" xmlns="http://www.w3.org/2000/svg">
<g opacity="0.9">
<path d="M394.116 78.027C394.116 78.027 422.447 34.7666 434.576 40.4278C446.704 46.089 394.116 78.027 394.116 78.027Z" fill="#BAB7FF"/>
<path d="M393.049 85.3173C393.049 85.3173 453.781 38.9967 473.612 51.2888C493.442 63.581 458.295 69.7444 445.031 70.9632C431.763 72.184 393.049 85.3173 393.049 85.3173Z" fill="#BAB7FF"/>
<path d="M388.451 78.5517C388.451 78.5517 388.369 76.7695 388.216 74.1665C387.92 69.0892 387.357 60.8924 386.618 56.7276C385.499 50.4294 389.464 44.8376 396.442 49.8803C403.42 54.9229 390.162 76.351 390.162 76.351L388.451 78.5517Z" fill="#BAB7FF"/>
<path d="M183.674 207.355L155.997 207.279C155.111 207.134 154.253 207.157 153.386 207.273L138.221 207.232C132.815 203.221 131.982 191.035 131.982 191.035C136.528 194.262 146.514 194.442 147.432 192.813C148.353 191.182 134.863 186.956 132.941 185.747C131.018 184.539 128.728 179.151 133.74 171.52C138.752 163.888 152.024 171.136 152.024 171.136C152.024 171.136 156.817 188.934 159.494 190.198C162.17 191.459 158.367 174.18 158.367 174.18C163.946 175.429 175.557 186.572 175.557 186.572C175.557 186.572 169.083 203.382 171.988 203.948C174.893 204.513 176.959 188.771 176.959 188.771C181.679 192.056 184.562 199.762 184.562 199.762C185.303 202.857 184.811 205.354 183.674 207.355Z" fill="#CDE0FB"/>
<path d="M52.1433 16.7133C59.0927 4.77432 79.7409 14.6411 79.7409 14.6411C79.7409 14.6411 88.4358 41.1424 92.5842 42.8328C96.7327 44.5232 89.575 18.7242 89.575 18.7242C98.1066 20.1553 116.558 36.0488 116.558 36.0488C116.558 36.0488 108.147 61.9785 112.583 62.595C117.02 63.2136 118.859 39.256 118.859 39.256C126.258 43.8352 131.245 55.2434 131.245 55.2434C136.522 73.06 113.373 78.9151 113.373 78.9151C113.373 78.9151 110.652 87.9632 113.473 99.941C113.473 99.941 114.225 102.215 114.635 105.845L112.44 105.255C112.42 104.618 112.375 103.998 112.304 103.391C112.306 103.387 112.304 103.383 112.302 103.381C112.302 103.373 112.299 103.363 112.297 103.354C112.238 102.975 112.152 102.434 112.04 101.774V101.772C112.04 101.77 112.038 101.77 112.04 101.768C111.724 100.276 111.53 99.1836 111.432 98.4078C111.432 98.4058 111.432 98.4037 111.432 98.4017C110.531 93.7429 109.08 87.5978 107.453 85.9523C107.453 85.9523 107.788 85.6767 108.194 85.0724C107.957 85.3521 107.712 85.6461 107.453 85.9523C101.532 92.9895 82.3949 89.2821 72.5097 84.3232C62.6246 79.3643 67.9795 77.6392 74.9004 74.3645C81.8212 71.0899 93.2865 75.5262 97.2778 74.587C101.271 73.6479 96.6775 70.3978 89.5587 69.0606C82.4398 67.7213 77.0767 73.7582 65.5215 71.8024C53.9664 69.8466 51.0796 46.3443 51.0796 46.3443C58.2107 50.85 73.3141 50.309 74.5717 47.7713C75.8293 45.2337 55.1015 39.9461 52.0983 38.2761C49.0973 36.6041 45.1938 28.6522 52.1433 16.7133Z" fill="#BAB7FF"/>
<path d="M211.9 77.2677C219.971 66.1494 239.414 77.974 239.414 77.974C239.414 77.974 245.369 105.065 249.306 107.152C253.242 109.238 248.736 82.9962 248.736 82.9962C257.035 85.2644 273.704 102.834 273.704 102.834C273.704 102.834 262.792 127.649 267.12 128.704C271.448 129.76 275.662 106.239 275.662 106.239C282.526 111.508 286.319 123.294 286.319 123.294C289.761 141.45 266.271 144.933 266.271 144.933C266.271 144.933 262.676 153.613 264.268 165.746C264.268 165.746 264.785 168.072 264.827 171.703L262.714 170.901C262.757 170.268 262.776 169.65 262.765 169.043C262.767 169.039 262.767 169.035 262.765 169.033C262.765 169.025 262.765 169.015 262.765 169.007C262.745 168.625 262.714 168.082 262.669 167.418V167.416C262.669 167.414 262.669 167.414 262.669 167.412C262.504 165.903 262.422 164.805 262.404 164.027C262.404 164.025 262.404 164.023 262.404 164.019C261.977 159.319 261.157 153.095 259.711 151.304C259.711 151.304 260.071 151.065 260.532 150.508C260.271 150.763 259.997 151.027 259.711 151.304C253.152 157.676 234.584 152.096 225.299 146.2C216.014 140.307 221.483 139.135 228.659 136.587C235.835 134.039 246.735 139.574 250.779 139.043C254.824 138.512 250.604 134.839 243.693 132.802C236.783 130.766 230.874 136.203 219.636 133.112C208.397 130.021 207.891 106.48 207.891 106.48C214.495 111.651 229.494 112.625 230.993 110.239C232.491 107.852 212.509 100.552 209.706 98.5998C206.899 96.646 203.832 88.388 211.9 77.2677Z" fill="#BAB7FF"/>
<path d="M265.693 193.393C265.693 193.393 262.767 203.656 263.329 207.643L252.247 207.614C252.016 205.362 252.559 202.917 254.432 200.412C254.432 200.412 260.097 194.524 265.693 193.393Z" fill="#BAB7FF"/>
<path d="M307.726 207.759L265.709 207.649C267.373 203.415 267.838 191.941 267.838 191.941C267.838 191.941 282.807 186.362 288.382 187.423C288.382 187.423 278.107 201.671 281.043 201.573C283.979 201.477 295.36 187.15 295.36 187.15C295.36 187.15 310.311 185.776 311.868 194.705C313.271 202.719 310.019 206.767 307.726 207.759Z" fill="#BAB7FF"/>
<path d="M395.968 207.994L356.197 207.89C358.775 206.787 362.14 205.748 365.751 204.515C374.803 201.42 387.136 205.685 395.968 207.994Z" fill="#BAB7FF"/>
<path d="M416.177 208.159L380.177 208.063C380.928 206.469 376.334 203.206 369.685 201.159C361.221 198.552 353.875 205.15 340.105 201.185C326.337 197.219 326.061 168.272 326.061 168.272C334.103 174.727 352.526 176.146 354.404 173.235C356.28 170.323 331.827 161.053 328.409 158.611C324.992 156.169 321.343 145.97 331.429 132.422C341.512 118.872 365.241 133.698 365.241 133.698C365.241 133.698 372.159 167.089 376.967 169.715C381.773 172.338 376.624 140.01 376.624 140.01C386.795 142.922 407.025 164.766 407.025 164.766C407.025 164.766 393.242 195.11 398.548 196.469C403.854 197.829 409.381 168.98 409.381 168.98C417.741 175.56 422.228 190.104 422.228 190.104C423.7 198.425 420.622 204.195 416.177 208.159Z" fill="#BAB7FF"/>
<path d="M76.5824 115.22C76.5824 115.144 75.4841 112.874 75.8332 112.699C76.1823 112.523 76.809 112.55 76.8805 112.948C76.954 113.348 76.5824 115.22 76.5824 115.22Z" fill="#F8A972"/>
<path d="M60.1868 86.9936C60.1868 86.9936 53.7457 79.2541 50.3364 84.2069C50.3364 84.2069 47.7926 85.2624 46.8719 89.5925C45.9327 94.0104 48.8705 97.3687 50.3894 96.5378C51.3633 96.005 52.1003 97.7097 52.1003 97.7097L60.1868 86.9936Z" fill="#233862"/>
<path d="M68.1752 128.176C73.2954 126.289 78.2278 117.527 78.2278 117.527L76.613 116.396C75.2676 118.364 69.2164 122.141 69.2164 122.141C69.0776 120.483 68.8775 118.978 68.6305 117.617C66.9503 108.356 63.1081 105.612 62.0772 105.031C61.9097 104.937 61.8179 104.9 61.8179 104.9C61.8179 104.9 61.822 104.967 61.8301 105.098C61.8444 105.378 61.8771 105.939 61.9322 106.709C62.3283 112.441 63.8962 129.754 68.1752 128.176Z" fill="#F8A972"/>
<path d="M51.0409 83.4208C51.0409 83.4208 50.1753 79.9563 45.0877 81.0404C45.0877 81.0404 47.5233 80.7342 48.1909 81.6712C48.1909 81.6712 46.2596 80.7872 45.051 81.5263C43.8424 82.2653 43.6444 84.756 43.824 85.5134C44.0037 86.2708 45.3389 88.5267 46.2228 88.5267C47.1068 88.5267 48.1541 87.751 48.1541 87.751L51.0409 83.4208Z" fill="#233862"/>
<path d="M43.4277 137.632C45.9572 131.959 47.1678 130.354 47.2107 128.57C47.2434 127.159 46.5472 125.636 45.1957 121.9C44.8772 121.02 44.6567 120.116 44.522 119.201C43.4522 112.002 47.6149 104.218 50.2036 103.689C50.9243 103.499 52.1431 100.898 52.1288 96.7092L52.4534 96.7725L57.9023 97.8504C57.9023 97.8504 57.7778 99.5654 57.7737 101.18C57.7696 102.526 57.8513 103.802 58.1554 103.963C58.5474 103.998 58.7781 104.022 58.7781 104.022C58.7781 104.022 63.3206 110.33 63.7023 116.2C64.0841 122.069 60.0643 124.617 63.733 136.344C67.4792 148.32 42.0293 140.766 43.4277 137.632Z" fill="#F8A972"/>
<path d="M57.9005 97.8525C57.9005 97.8525 57.776 99.5675 57.7719 101.182C54.7239 101.097 53.1111 98.316 52.4517 96.7726L57.9005 97.8525Z" fill="#E8945B"/>
<path d="M51.8898 96.1805C51.8898 96.1805 50.2913 93.6551 49.9095 91.4972C49.6359 89.9558 50.4199 84.2436 56.1607 85.0663C56.1607 85.0663 57.8287 85.2296 59.3945 86.2892C60.6399 87.1303 62.4405 88.9493 60.4276 93.9328L59.9049 95.617L51.8898 96.1805Z" fill="#233862"/>
<path d="M58.9191 99.3815C58.9191 99.3815 51.7063 99.5 51.7002 95.0065C51.6961 90.5131 50.7611 87.5018 55.3668 87.2364C59.9726 86.971 60.8688 88.6839 61.2363 90.1824C61.6017 91.6829 60.7953 99.2346 58.9191 99.3815Z" fill="#F8A972"/>
<path d="M58.6516 87.1262C58.6516 87.1262 56.6775 92.3974 53.6458 93.1773C50.6141 93.9572 49.2993 93.1447 49.2993 93.1447C49.2993 93.1447 51.6246 91.2971 52.1064 88.0735C52.1085 88.0735 57.1613 84.6171 58.6516 87.1262Z" fill="#233862"/>
<path d="M58.1616 87.5549C58.1616 87.5549 59.6356 88.7309 59.997 89.8762C60.3563 91.0215 60.5176 93.3754 61.2056 93.2958C61.2056 93.2958 62.6939 89.7129 61.0218 87.6856C59.2477 85.5359 58.1616 87.5549 58.1616 87.5549Z" fill="#233862"/>
<path d="M49.8139 192.068C51.6289 199.287 54.3605 204.821 54.3605 204.821L56.7389 204.656C56.7389 204.656 55.5731 199.107 55.6385 191.608C55.6854 186.366 56.3346 180.172 58.4048 174.255C65.5216 153.928 64.3722 139.133 64.3722 139.133L50.9878 140.698L50.3652 140.772C50.31 146.919 50.1508 155.265 50.012 161.792C49.8895 167.661 49.7813 172.059 49.7813 172.059C47.2089 177.601 48.144 185.425 49.8139 192.068Z" fill="#006BFF"/>
<path d="M34.0449 143.659L36.211 144.308C36.211 144.308 43.3544 132.455 44.0036 129.37C44.2159 128.365 44.7345 126.357 45.3408 124.105C46.5943 119.442 48.2133 113.738 48.2133 113.738L48.7461 111.429L50.5651 103.552C50.5651 103.552 47.0822 103.908 45.0468 104.759C44.3731 105.041 43.8586 105.376 43.679 105.772C42.1825 109.061 40.6881 117.364 39.6388 123.286C39.0528 126.587 38.6078 129.149 38.375 129.692C37.7258 131.209 35.7414 139.545 34.0449 143.659Z" fill="#F8A972"/>
<path d="M42.1354 190.916C42.9051 199.13 46.294 204.442 46.294 204.442L47.4312 205.268C47.4312 205.268 48.5071 199.481 49.2686 192.597C49.9933 186.053 50.9876 179.128 52.1125 177.015C56.5753 168.633 57.9207 136.991 57.9207 136.991L44.3505 136.317C42.9867 138.612 42.3906 142.375 42.2497 146.654C41.8925 157.453 44.4322 171.534 44.8098 173.571C44.8098 173.573 44.8098 173.573 44.8119 173.575C44.8425 173.733 44.7956 173.888 44.7221 174.031C42.019 179.376 41.6291 185.49 42.1354 190.916Z" fill="#0061FF"/>
<path d="M58.4376 87.7327C58.4376 87.7327 57.0309 93.253 53.2051 95.021C53.2051 95.021 57.0289 91.63 57.3535 87.9858C57.6781 84.3417 58.4376 87.7327 58.4376 87.7327Z" fill="#233862"/>
<path d="M41.7273 141.727C41.7028 142.185 41.7294 142.55 41.811 142.811C42.0989 143.72 43.0911 144.134 45.4899 143.885C46.9557 143.732 47.609 141.276 47.8989 139.182C48.7788 142.179 50.0119 143.861 51.6043 144.214C53.9276 144.73 65.6522 146.156 66.4198 140.584C67.263 134.453 64.7355 123.601 64.5967 117.747C64.9417 115.673 65.0602 113.87 65.0214 112.325C64.9234 108.156 63.7005 105.819 62.7593 104.88C62.4919 104.675 62.2265 104.547 61.1567 104.363C60.6096 104.269 59.8522 104.163 58.7783 104.02C58.7783 104.02 58.3394 103.971 58.3496 103.987C58.5476 104.343 61.2037 108.362 60.9954 109.397C60.779 110.479 51.3614 109.506 50.7122 108.91C50.063 108.313 49.0361 103.755 49.0361 103.755C49.0361 103.755 45.7022 104.12 44.071 105.306C44.071 105.306 44.0771 105.314 44.0874 105.327C43.8893 105.467 43.7423 105.619 43.6586 105.778C41.9192 109.091 40.1798 117.453 38.959 123.419C41.9213 125.052 44.51 124.566 45.3123 124.35C44.2629 131.222 41.8825 138.598 41.7273 141.727Z" fill="#FFA400"/>
<path d="M76.6113 116.398C76.6113 116.175 76.4256 112.954 76.9972 112.276C77.5688 111.598 78.7427 110.637 79.1102 110.665C79.4777 110.694 80.919 112.609 80.4862 114.077C80.0534 115.543 78.2262 117.529 78.2262 117.529L76.6113 116.398Z" fill="#F8A972"/>
<path d="M73.9815 112.456L77.3215 113.456C77.4317 113.489 77.5481 113.427 77.5828 113.315L79.4916 106.948C79.5243 106.837 79.461 106.721 79.3508 106.686L76.0108 105.686C75.9006 105.653 75.7842 105.716 75.7495 105.827L73.8406 112.194C73.808 112.307 73.8713 112.423 73.9815 112.456Z" fill="#F1A34F"/>
<path d="M74.8494 112.717L77.879 113.625C78.075 113.685 78.2832 113.572 78.3424 113.376L80.1574 107.319C80.2166 107.123 80.1043 106.915 79.9083 106.856L76.8787 105.947C76.6827 105.888 76.4744 106 76.4152 106.196L74.6003 112.253C74.5411 112.449 74.6534 112.658 74.8494 112.717Z" fill="#D86713"/>
<path d="M42.1357 190.917C42.9054 199.13 46.2944 204.442 46.2944 204.442L47.4519 205.495C47.4519 205.495 48.5074 199.481 49.2689 192.597C48.4645 192.654 44.9286 192.782 42.1357 190.917Z" fill="#F8A972"/>
<path d="M49.814 192.068C51.6289 199.287 54.3605 204.821 54.3605 204.821L56.7389 204.656C56.7389 204.656 55.5732 199.107 55.6385 191.609C54.8341 192.017 53.1682 192.429 49.814 192.068Z" fill="#D9935C"/>
<path d="M52.9907 206.818H54.5096C55.018 206.738 55.3936 206.591 55.9162 206.522C56.7083 206.418 57.0738 206.743 57.1452 206.818C57.1554 206.828 57.1595 206.832 57.1595 206.832H63.6108C63.7741 206.602 63.6169 206.065 63.4638 205.669C63.3617 205.399 63.1372 205.197 62.8595 205.117C62.1756 204.919 60.8262 204.744 59.591 203.625C58.8969 202.996 56.2347 201.316 56.2347 201.316L56.2204 201.312C56.1612 201.312 55.8836 201.398 54.6729 202.421C54.0482 202.947 52.9805 201.675 52.9805 201.675C52.9805 201.675 52.7804 201.841 52.6314 202.149C52.5109 202.392 52.4231 202.727 52.4926 203.139C52.5885 203.721 52.2782 204.801 52.0312 205.532C51.8801 205.975 51.7535 206.289 51.7535 206.289C51.7535 206.289 51.6861 206.655 52.9907 206.818Z" fill="#233862"/>
<path d="M52.6353 202.151C52.9986 202.406 53.7622 202.91 54.2705 202.976C54.9565 203.066 56.2365 201.316 56.2365 201.316L56.2222 201.312C56.163 201.312 55.8854 201.398 54.6748 202.42C54.05 202.947 52.9823 201.675 52.9823 201.675C52.9823 201.675 52.7843 201.841 52.6353 202.151Z" fill="#466AA5"/>
<path d="M52.9907 206.818H54.5096C55.0179 206.738 55.3936 206.591 55.9162 206.522C56.7083 206.418 57.0737 206.742 57.1452 206.818C57.1554 206.828 57.1595 206.832 57.1595 206.832H63.6108C63.7741 206.602 63.6169 206.065 63.4638 205.669C63.2678 205.495 63.2127 206.426 63.1045 206.573C62.9963 206.722 57.8414 206.628 57.5433 206.412C57.2452 206.195 56.3531 205.816 55.1077 206.114C54.0237 206.373 52.4272 205.709 52.0332 205.532C51.8821 205.975 51.7555 206.289 51.7555 206.289C51.7555 206.289 51.6861 206.655 52.9907 206.818Z" fill="#466AA5"/>
<path d="M44.8877 206.818H46.4066C46.915 206.738 47.2906 206.591 47.8133 206.522C48.6054 206.418 48.9708 206.743 49.0423 206.818C49.0525 206.828 49.0566 206.832 49.0566 206.832H55.5078C55.6712 206.602 55.514 206.065 55.3608 205.669C55.2588 205.399 55.0342 205.197 54.7566 205.117C54.0726 204.919 52.7232 204.744 51.488 203.625C50.7939 202.996 48.1317 201.316 48.1317 201.316L48.1174 201.312C48.0582 201.312 47.7806 201.398 46.57 202.421C45.9452 202.947 44.8775 201.675 44.8775 201.675C44.8775 201.675 44.6774 201.841 44.5284 202.149C44.408 202.392 44.3202 202.727 44.3896 203.139C44.4855 203.721 44.1752 204.801 43.9282 205.532C43.7771 205.975 43.6505 206.289 43.6505 206.289C43.6505 206.289 43.5811 206.655 44.8877 206.818Z" fill="#233862"/>
<path d="M44.5303 202.151C44.8937 202.406 45.6572 202.91 46.1656 202.976C46.8515 203.066 48.1316 201.316 48.1316 201.316L48.1173 201.312C48.0581 201.312 47.7804 201.398 46.5698 202.42C45.9451 202.947 44.8773 201.675 44.8773 201.675C44.8773 201.675 44.6813 201.841 44.5303 202.151Z" fill="#466AA5"/>
<path d="M44.8877 206.818H46.4066C46.9149 206.738 47.2906 206.591 47.8132 206.522C48.6053 206.418 48.9708 206.742 49.0422 206.818C49.0524 206.828 49.0565 206.832 49.0565 206.832H55.5078C55.6711 206.602 55.5139 206.065 55.3608 205.669C55.1648 205.495 55.1097 206.426 55.0015 206.573C54.8933 206.722 49.7384 206.628 49.4403 206.412C49.1423 206.195 48.2501 205.816 47.0048 206.114C45.9207 206.373 44.3242 205.709 43.9302 205.532C43.7791 205.975 43.6526 206.289 43.6526 206.289C43.6526 206.289 43.5811 206.655 44.8877 206.818Z" fill="#466AA5"/>
<path d="M62.3573 104.69C62.3573 104.69 66.8569 106.954 68.3554 116.09C68.3554 116.09 66.8814 118.109 64.8072 118.705C64.5112 118.791 64.2029 118.846 63.8824 118.862C61.3325 118.999 62.3573 104.69 62.3573 104.69Z" fill="#FFA400"/>
<path d="M79.4552 110.914C79.4552 110.914 78.0649 108.775 77.7261 108.893C77.2402 109.063 78.9857 111.778 78.9857 111.778C78.9857 111.778 77.6914 109.749 77.4892 109.902C77.0299 110.249 77.7608 111.525 78.4876 112.501C78.4876 112.501 77.1871 111.31 77.1442 111.525C76.9952 112.276 78.5713 114.097 78.5713 114.097L79.4532 112.084V110.914H79.4552Z" fill="#F8A972"/>
<path d="M80.4983 112.899C80.4309 112.637 80.092 107.527 79.9471 108.013C79.8021 108.497 79.4551 111.178 79.4551 111.178L80.4983 112.899Z" fill="#F8A972"/>
<path d="M57.5103 96.7133C57.5103 96.7133 57.6348 97.2421 58.9516 97.1604C58.9516 97.1604 60.0581 97.093 60.0234 96.5092C60.0234 96.5112 58.9516 96.0968 57.5103 96.7133Z" fill="#EAF6FF"/>
<path d="M34.045 143.659C34.045 143.659 31.4318 145.396 31.0337 146.127C30.6336 146.86 29.7026 149.555 29.7026 149.555C29.7026 149.555 30.3682 149.655 31.0337 148.489C31.6993 147.323 33.896 147.423 34.6268 146.792C35.3598 146.16 36.2111 144.308 36.2111 144.308L34.045 143.659Z" fill="#F8A972"/>
<path d="M35.9272 144.879C35.9272 144.879 35.4924 146.925 34.9595 147.523C34.4267 148.121 33.6958 149.12 33.3957 148.854C33.0956 148.589 33.7285 146.36 33.7285 146.36L35.9272 144.879Z" fill="#F8A972"/>
<path d="M31.3992 146.36C31.3318 146.46 29.0371 148.899 29.0371 148.899C29.0371 148.899 29.868 149.277 30.1028 148.899C30.3355 148.522 31.3992 146.36 31.3992 146.36Z" fill="#F8A972"/>
<path d="M220.448 26.0084L241.74 29.3137L227.704 19.4918L226.946 22.5746L221.749 23.4504L220.448 26.0084Z" fill="black"/>
<path d="M241.739 29.3137L224.103 19.943L206.719 18.8549L241.739 29.3137Z" fill="#EAF6FF"/>
<path d="M227.704 19.4918L241.739 29.3137L230.968 14.1001L227.704 19.4918Z" fill="#EAF6FF"/>
<path d="M532.164 87.1303L514.729 89.6169L526.298 81.7324L526.886 84.2599L531.127 85.0275L532.164 87.1303Z" fill="black"/>
<path d="M514.729 89.6169L529.238 82.1387L543.456 81.4221L514.729 89.6169Z" fill="#EAF6FF"/>
<path d="M526.298 81.7325L514.729 89.617L523.685 77.2942L526.298 81.7325Z" fill="#EAF6FF"/>
<path d="M95.5181 67.8132H201.466V95.6415H126.129V125.258H192.52V153.087H126.129V206.955H95.5181V67.8132Z" fill="#EAF6FF"/>
<path d="M247.566 70.5693H275.041L333.09 206.983H301.938L289.554 176.605H232.281L219.897 206.983H189.519L247.566 70.5693ZM278.914 150.29L260.92 106.366L242.925 150.29H278.914Z" fill="#EAF6FF"/>
<path d="M443.644 195.106C432.228 202.459 418.49 206.716 403.397 206.716C361.603 206.716 331.61 175.564 331.61 136.67C331.61 98.1648 361.989 66.625 403.783 66.625C445.578 66.625 475.57 97.777 475.57 136.67C475.57 150.796 471.313 164.34 463.574 175.562L477.505 187.364L458.543 208.455L443.644 195.106ZM421.587 175.562C421.587 175.562 435.107 168.606 440.743 155.632C443.193 149.992 444.42 143.828 444.42 136.67C444.42 113.45 427.392 94.1022 403.399 94.1022C379.407 94.1022 362.766 113.064 362.766 136.67C362.766 159.889 379.795 179.239 403.787 179.239C410.363 179.239 416.363 177.885 421.587 175.562Z" fill="#EAF6FF"/>
<path d="M405.034 134.641C405.034 134.641 402.75 138.02 401.447 145.124C400.306 151.347 399.306 153.644 397.658 154.92C396.011 156.196 386.832 159.962 386.832 159.962L387.518 161.571C387.518 161.571 400.972 159.738 402.483 157.49C403.993 155.242 409.755 141.956 409.307 138.896C408.86 135.835 405.034 134.641 405.034 134.641Z" fill="#F4A269"/>
<path d="M367.678 205.671C367.541 206.981 365.687 206.938 363.591 206.628C361.496 206.32 362.037 206.869 359.091 206.818C356.145 206.767 355.161 205.763 355.031 205.338C354.914 204.96 356.343 204.691 357.872 204.368C358.064 204.327 358.258 204.286 358.45 204.244C360.175 203.862 361.347 202.616 362.846 201.545C364.264 200.528 366.171 196.751 366.171 196.751L370.199 196.694C370.199 196.694 368.399 200.077 367.717 201.539C367.315 202.398 367.441 203.474 367.578 204.301C367.653 204.75 367.727 205.209 367.678 205.671Z" fill="#F8A972"/>
<path d="M363.591 206.628C361.496 206.32 362.037 206.869 359.091 206.818C356.145 206.767 355.161 205.763 355.031 205.338C354.914 204.96 356.343 204.691 357.872 204.368L357.889 204.397C357.889 204.397 359.753 205.473 362.186 205.305C364.169 205.168 366.212 204.407 367.58 204.301C367.653 204.75 367.725 205.209 367.678 205.671C367.541 206.981 365.687 206.938 363.591 206.628Z" fill="#C65447"/>
<path d="M411.324 162.137C411.324 162.137 384.917 162.265 379.989 165.377C375.06 168.488 363.838 200.53 363.838 200.53C363.838 200.53 364.712 201.682 365.798 201.831C367.539 202.069 368.525 201.39 368.525 201.39C368.525 201.39 383.561 186.433 384.362 182.35C385.162 178.265 384.966 174.621 386.789 174.523C388.612 174.425 411.326 177.285 414.762 171.232C418.198 165.179 415.358 159.187 415.358 159.187L411.324 162.137Z" fill="#EF7E29"/>
<path d="M381.706 205.066C381.679 206.383 379.827 206.496 377.714 206.363C375.601 206.23 376.187 206.732 373.247 206.928C370.308 207.124 369.242 206.206 369.077 205.793C368.93 205.428 370.33 205.038 371.827 204.589C372.014 204.534 372.204 204.474 372.392 204.415C374.078 203.891 375.142 202.551 376.547 201.357C377.876 200.226 379.46 196.302 379.46 196.302L383.469 195.908C383.469 195.908 381.959 199.43 381.401 200.945C381.073 201.835 381.289 202.896 381.495 203.709C381.603 204.15 381.716 204.601 381.706 205.066Z" fill="#F8A972"/>
<path d="M377.712 206.363C375.597 206.23 376.185 206.732 373.245 206.928C370.306 207.124 369.24 206.206 369.075 205.793C368.928 205.428 370.328 205.038 371.825 204.589L371.845 204.615C371.845 204.615 373.793 205.532 376.204 205.16C378.168 204.858 380.14 203.927 381.493 203.707C381.604 204.148 381.716 204.601 381.706 205.064C381.677 206.383 379.827 206.496 377.712 206.363Z" fill="#C65447"/>
<path d="M416.453 163.76C416.453 163.76 393.193 164.86 388.389 168.161C383.586 171.463 376.838 199.256 376.838 199.256C376.838 199.256 377.849 200.593 378.88 200.963C380.191 201.432 381.959 200.902 381.959 200.902C381.959 200.902 391.297 189.651 391.938 185.537C392.579 181.423 393.581 179.31 395.398 179.141C397.215 178.971 415.064 182.458 423.222 174.764C428.287 169.986 416.453 163.76 416.453 163.76Z" fill="#FFA400"/>
<path d="M408.491 132.781C408.039 131.989 407.5 130.566 407.11 127.99C407.162 128.245 407.825 131.483 409.205 133.249C414.593 136.293 423.102 147.727 423.049 149.885C423.049 149.885 428.277 142.963 428.334 142.924C428.334 142.924 434.218 134.321 426.287 130.148C422.257 128.027 422.073 124.97 422.057 122.308C422.042 119.644 420.062 108.305 412.504 111.811C412.504 111.811 411.222 111.341 410.671 111.461C410.671 111.461 411.132 111.519 411.379 111.741C410.477 111.747 409.195 111.9 408.164 112.582C405.428 114.383 403.852 129.049 408.491 132.781Z" fill="#B5453C"/>
<path d="M417.431 130.748C417.431 130.748 415.264 130.542 413.098 130.748C411.626 130.889 410.169 131.344 409.34 131.691C407.29 132.549 407.505 136.176 411.806 135.505C416.108 134.833 417.733 131.826 417.431 130.748Z" fill="#F8A972"/>
<path d="M409.522 133.396C409.497 133.41 408.907 136.517 411.725 136.393C413.574 136.311 417.561 134.074 417.208 132.491C417.041 131.738 415.644 129.786 415.363 125.33L415.026 125.419L409.367 126.936C409.367 126.936 409.618 128.733 409.734 130.431C409.834 131.863 409.838 133.222 409.522 133.396Z" fill="#F8A972"/>
<path d="M409.367 126.938C409.367 126.938 409.618 128.735 409.734 130.434C412.937 130.129 414.438 127.09 415.026 125.42L409.367 126.938Z" fill="#F4A269"/>
<path d="M415.577 124.756C415.577 124.756 417.081 121.988 417.333 119.687C417.512 118.045 416.285 112.088 410.301 113.356C410.301 113.356 408.558 113.646 406.982 114.871C405.728 115.845 403.962 117.884 406.431 122.99L407.098 124.725L415.577 124.756Z" fill="#B5453C"/>
<path d="M408.403 128.621C408.403 128.621 416.004 128.239 415.693 123.511C415.383 118.78 416.155 115.547 411.29 115.589C406.423 115.632 405.6 117.498 405.32 119.103C405.038 120.706 406.417 128.596 408.403 128.621Z" fill="#F8A972"/>
<path d="M407.823 115.702C407.823 115.702 410.271 121.112 413.517 121.72C416.763 122.329 418.088 121.381 418.088 121.381C418.088 121.381 415.512 119.601 414.777 116.241C414.779 116.241 409.216 112.958 407.823 115.702Z" fill="#B5453C"/>
<path d="M408.368 116.118C408.368 116.118 406.899 117.462 406.6 118.691C406.302 119.92 406.298 122.41 405.569 122.376C405.569 122.376 403.753 118.709 405.369 116.457C407.086 114.071 408.368 116.118 408.368 116.118Z" fill="#B5453C"/>
<path d="M400.798 162.533C401.413 163.268 403.334 163.494 405.385 163.831C407 164.099 408.697 164.431 409.903 165.142C412.643 166.751 421.595 172.187 424.219 171.94C425.235 171.844 425.045 169.903 424.429 167.326C423.459 163.258 421.428 157.607 421.428 155.149C421.428 153.807 420.981 150.635 420.387 147.007C420.338 146.715 420.289 146.419 420.24 146.123C419.062 139.069 417.429 130.752 417.429 130.752C417.429 130.752 415.607 134.725 412.061 134.725C408.515 134.725 409.338 131.695 409.338 131.695C409.338 131.695 406.102 132.075 405.336 132.9C404.571 133.725 402.631 137.283 402.248 138.255C402.248 138.255 402.17 139.49 405.228 140.078C405.228 140.078 404.483 143.432 404.395 145.668C404.33 147.319 405.522 152.488 405.865 155.704C405.988 156.843 406.002 157.737 405.818 158.141C405.581 158.66 404.816 159.179 403.944 159.685C402.217 160.689 400.067 161.659 400.798 162.533Z" fill="#004AFF"/>
<path d="M403.946 159.683C401.982 163.031 409.271 164.037 410.477 164.746C413.217 166.355 421.595 172.187 424.219 171.94C425.236 171.844 425.046 169.903 424.429 167.326C423.459 163.258 421.428 157.606 421.428 155.148C421.428 153.807 420.981 150.635 420.387 147.007L417.229 143.975C417.229 143.975 413.844 152.721 410.618 154.154C408.928 154.906 407.162 155.4 405.863 155.702C405.986 156.841 406 157.735 405.816 158.139C405.582 158.658 404.816 159.176 403.946 159.683Z" fill="#233862"/>
<path d="M418.4 133.367C418.4 133.367 421.101 131.728 423.712 134.839C426.323 137.95 421.857 160.187 417.988 161.33C413.69 162.6 401.278 161.126 401.278 161.126L401.517 159.187C401.517 159.187 414.732 156.653 415.281 155.947C415.83 155.24 417.028 133.726 418.4 133.367Z" fill="#F8A972"/>
<path d="M417.431 130.748C417.431 130.748 422.975 131.248 424.586 133.073C426.197 134.896 426.667 139.839 426.667 139.839C426.667 139.839 421.783 143.781 415.899 142.252L417.431 130.748Z" fill="#004AFF"/>
<path d="M402.595 159.07C402.595 159.07 398.291 158.237 397.805 158.446C397.319 158.654 394.612 161.083 394.89 161.569C395.168 162.055 396.278 162.402 397.528 161.986C398.777 161.569 401.484 161.361 401.97 160.736C402.456 160.112 402.595 159.07 402.595 159.07Z" fill="#F8A972"/>
<path d="M399.131 164.69H406.457V163.824H399.131V164.69Z" fill="#9E332E"/>
<path d="M400.688 164.57C400.617 164.284 393.955 153.823 393.955 153.823H379.131L386.567 164.29L400.688 164.57Z" fill="#9E332E"/>
<path d="M400.063 164.689C399.992 164.403 393.308 153.823 393.308 153.823H379.129L386.203 164.689H400.063Z" fill="#B5453C"/>
<path d="M387.565 159.291C387.71 159.715 388.173 160.058 388.596 160.058C389.019 160.058 389.245 159.715 389.098 159.291C388.953 158.866 388.49 158.523 388.067 158.523C387.645 158.523 387.42 158.868 387.565 159.291Z" fill="#9E332E"/>
<path d="M503.778 128.306C503.778 128.306 507.314 130.317 508.304 130.317C509.294 130.317 513.179 129.566 514.264 130.119C515.348 130.672 517.307 132.9 517.675 133.626C518.336 134.935 515.013 134.357 513.441 133.243C513.212 133.081 512.928 133.02 512.655 133.081C511.84 133.259 510.15 133.567 509.333 133.263C508.235 132.857 502.451 132.406 502.451 132.406L503.778 128.306Z" fill="#EA9963"/>
<path d="M476.871 100.917C476.871 100.917 480.537 126.973 486.607 129.307C489.602 130.458 502.841 133.069 506.757 133.33C506.757 133.33 507.716 132.553 507.482 129.384C507.482 129.384 493.611 124.293 491.641 121.524C488.71 117.402 493.462 104.688 489.781 100.817C486.105 96.946 479.906 95.2842 476.871 100.917Z" fill="#ED7D2B"/>
<path d="M478.108 155.814C479.178 157.629 480.415 159.327 481.689 160.938C485.629 165.913 489.918 170.015 490.665 173.892C490.814 174.664 491.049 175.496 491.357 176.372C491.67 177.26 492.056 178.193 492.501 179.159C494.173 182.791 496.674 186.862 499.17 190.561C503.486 196.957 507.545 202.292 507.545 202.292L514.988 201.975C514.69 201.23 511.444 192.398 507.102 181.609C505.338 177.228 503.464 172.569 501.655 168.075C501.414 167.475 501.173 166.877 500.934 166.285C500.381 164.909 499.836 163.555 499.305 162.239C495.228 152.106 491.98 144.038 491.98 144.038C491.98 144.038 475.682 137.865 473.99 141.866C472.594 145.161 473.731 148.391 478.108 155.814Z" fill="#233862"/>
<path d="M507.775 200.938C507.775 200.938 508.157 207.079 509.345 207.167C509.503 207.179 515.372 207.179 515.372 207.179L522.862 207.136C522.862 207.136 522.813 205.332 520.623 204.95C518.432 204.568 514.768 203.029 513.441 200.136C512.046 197.09 507.775 200.938 507.775 200.938Z" fill="#006BFF"/>
<path d="M481.331 181.623C481.331 181.623 475.77 184.257 476.129 185.392C476.176 185.543 478.355 190.992 478.355 190.992L481.176 197.933C481.176 197.933 482.834 197.219 482.377 195.042C481.919 192.868 481.987 188.893 484.183 186.586C486.488 184.161 481.331 181.623 481.331 181.623Z" fill="#006BFF"/>
<path d="M483.314 187.752C483.314 187.752 480.19 184.594 479.619 182.499C479.619 182.499 490.363 172.056 494.206 169.521C498.613 166.612 501.478 166.595 500.769 165.881C498.452 163.545 478.976 156.731 475.805 151.798C474.713 150.1 474.094 148.485 473.757 147.076C473.039 144.067 473.606 141.989 473.606 141.989L497.831 141.288C497.831 141.288 515.844 159.971 515.74 167.004C515.63 174.602 483.314 187.752 483.314 187.752Z" fill="#004AFF"/>
<path d="M491.204 99.2753C486.303 100.543 478.179 96.0027 478.179 96.0027C478.179 96.0027 481.333 93.8816 482.503 89.2248C482.562 88.99 482.615 88.7491 482.664 88.5021C483.177 88.3939 484.147 88.1877 485.182 87.9692L488.924 91.3235C488.924 91.3235 488.838 92.7158 488.371 95.1085C488.289 95.527 488.197 95.9741 488.089 96.4519C490.096 97.6952 491.204 99.2753 491.204 99.2753Z" fill="#F8A972"/>
<path d="M472.99 119.589C473.692 129.029 472.769 143.387 473.565 145.874C474.253 148.019 482.083 146.743 485.208 146.027C486.366 145.761 487.766 145.384 489.214 144.935C493.25 143.685 497.649 141.899 498.121 140.574C498.139 140.523 498.156 140.472 498.164 140.421C498.207 140.229 498.199 140.047 498.156 139.865C497.999 139.19 497.392 138.459 497.321 136.787C497.241 134.919 497.253 132.72 497.182 130.356C497.178 130.09 497.174 129.799 497.145 129.535L497.143 129.439C497.141 129.388 497.141 129.339 497.139 129.288C497.072 126.65 496.933 123.88 496.774 121.13C496.672 119.403 496.555 117.694 496.418 116.055C496.067 111.827 495.592 108.064 494.965 105.688C493.938 101.811 491.676 99.2835 489.616 97.4319L488.126 96.1539C486.464 96.5173 484.498 96.2763 482.72 95.4332C480.796 94.5186 480.131 93.8653 479.796 94.1123C475.358 97.5421 472.163 108.046 472.99 119.589Z" fill="#FFA400"/>
<path d="M489.214 144.937C493.25 143.687 497.649 141.901 498.121 140.576C498.139 140.525 498.156 140.474 498.164 140.423C498.162 140.237 498.16 140.053 498.156 139.868C497.999 139.192 497.392 138.461 497.321 136.789C497.241 134.921 497.253 132.722 497.182 130.358C497.178 130.093 497.174 129.801 497.145 129.537L497.143 129.441C497.141 129.39 497.141 129.341 497.139 129.29L480.823 108.499C480.823 108.499 469.854 131.342 489.214 144.937Z" fill="#ED7D2B"/>
<path d="M488.924 91.3214C488.924 91.3214 488.838 92.7138 488.371 95.1065C484.716 93.9244 483.059 90.6232 482.503 89.2227C482.563 88.9879 482.616 88.747 482.665 88.5C483.177 88.3918 484.147 88.1856 485.182 87.9672L488.924 91.3214Z" fill="#EA9963"/>
<path d="M489.414 93.4324C489.414 93.4324 481.443 92.1014 482.348 87.1506C483.252 82.1999 482.834 78.6925 487.962 79.3335C493.091 79.9725 493.73 82.0427 493.83 83.7698C493.93 85.4949 491.512 93.6509 489.414 93.4324Z" fill="#F8A972"/>
<path d="M520.815 135.795L521.518 136.024L527.5 117.618L526.797 117.39L520.815 135.795Z" fill="#4A75CB"/>
<path d="M501.186 135.558L521.491 135.992L521.517 134.778L501.212 134.343L501.186 135.558Z" fill="#4A75CB"/>
<path d="M501.596 136.56C501.596 136.56 508.121 138.281 510.566 138.1C513.012 137.92 515.047 136.756 515.356 136.148C515.664 135.539 516.311 134.464 514.645 134.662C512.979 134.86 510.705 135.215 510.636 134.894C510.564 134.574 511.993 134.604 511.993 134.604C511.993 134.604 512.426 133.976 511.881 133.953C511.336 133.931 509.752 133.5 509.162 133.794C508.572 134.088 508.029 135.176 507.598 135.131C507.167 135.086 502.139 132.865 502.139 132.865L501.596 136.56Z" fill="#F8A972"/>
<path d="M478.49 101.987C478.49 101.987 479.261 128.288 485.037 131.277C487.887 132.751 500.757 136.805 504.619 137.497C504.619 137.497 505.659 136.83 505.775 133.655C505.775 133.655 492.552 127.065 490.898 124.094C488.438 119.674 494.565 107.562 491.333 103.309C488.103 99.0589 482.128 96.7214 478.49 101.987Z" fill="#FFA400"/>
<path d="M482.503 89.2248C482.503 89.2248 482.411 87.5263 483.461 86.5524C483.461 86.5524 483.095 84.8498 483.769 84.5681C484.443 84.2863 484.584 85.7195 484.892 85.4949C485.2 85.2703 486.576 84.2026 487.166 82.6306C487.756 81.0586 493.152 82.9634 493.781 83.2451C494.409 83.5269 496.431 82.4898 496.825 81.6466C496.825 81.6466 495.702 80.7483 495.195 80.0746C494.691 79.4009 491.153 74.8523 486.211 76.1446C481.27 77.4369 480.596 79.7949 480.876 81.816C481.158 83.8372 480.48 88.545 482.503 89.2248Z" fill="#004AFF"/>
<path d="M329.975 107.219C329.432 108.677 328.493 110.369 327.507 110.79C326.388 111.268 325.923 111.941 325.923 111.941L325.02 111.417L323.942 110.79C323.942 110.79 323.969 110.669 324.02 110.475C324.071 110.282 324.153 110.01 324.263 109.712C324.263 109.712 324.594 109.287 324.392 108.752C324.189 108.22 324.23 107.395 324.575 106.891C324.92 106.388 325.255 105.149 325.463 105.186C325.968 105.272 325.216 106.974 325.431 107.291C325.627 107.576 325.87 107.478 325.915 107.456C325.917 107.454 325.921 107.454 325.923 107.452C327.337 106.829 329.052 103.477 329.812 103.928C330.096 104.098 330.206 106.599 329.975 107.219Z" fill="#F8A972"/>
<path d="M325.08 109.248L326.852 110.494C326.976 110.582 327.152 110.551 327.24 110.426L331.78 103.967C331.868 103.842 331.837 103.667 331.713 103.579L329.941 102.334C329.816 102.246 329.641 102.277 329.553 102.401L325.013 108.861C324.925 108.987 324.955 109.161 325.08 109.248Z" fill="#004AFF"/>
<path d="M326.703 110.39L327.742 111.121C327.838 111.188 327.971 111.163 328.038 111.069L332.654 104.502C332.722 104.406 332.697 104.273 332.603 104.208L331.564 103.477C331.468 103.41 331.335 103.434 331.268 103.528L326.652 110.096C326.585 110.19 326.607 110.322 326.703 110.39Z" fill="#233862"/>
<path d="M299.656 99.9799C299.656 99.9799 308.674 115.708 311.946 118.603L323.943 109.659C323.943 109.659 325.684 110.194 326.445 111.939C326.445 111.939 319.161 126.779 311.989 127.41C304.817 128.041 294.75 109.622 294.75 109.622L299.656 99.9799Z" fill="#233862"/>
<path d="M279.251 206.955H274.041C273.385 206.6 272.8 205.783 272.616 204.568C272.361 202.89 270.48 201.973 270.072 200.602C269.666 199.23 271.75 197.296 271.75 197.296L272.099 196.847L272.463 196.38L275.921 197.194C275.921 197.194 276.007 198.019 276.058 199.066C276.095 199.824 276.115 200.698 276.072 201.465C275.97 203.296 276.585 205.266 278.212 205.624C279.414 205.887 279.361 206.602 279.251 206.955Z" fill="#233862"/>
<path d="M309.488 206.955H297.574C297 206.257 297.212 203.674 297.298 202.833C297.316 202.664 297.329 202.563 297.329 202.563C297.329 202.563 301.397 199.309 301.957 201.8C301.973 201.878 301.994 201.955 302.016 202.031C302.72 204.362 305.879 205.422 307.702 205.716C308.888 205.91 309.325 206.526 309.488 206.955Z" fill="#233862"/>
<path d="M307.218 140.445C307.218 140.445 306.599 148.154 305.874 157.421C304.888 170.007 303.7 185.47 303.584 188.397C303.382 193.483 302.567 201.618 302.567 201.618C302.567 201.618 300.636 203.552 296.769 202.737C296.769 202.737 293.325 191.123 292.341 178.835C292.327 178.633 292.31 178.43 292.296 178.228C291.382 165.72 289.957 139.378 289.957 139.378L307.218 140.445Z" fill="#FFA400"/>
<path d="M307.218 140.445C307.218 140.445 306.599 148.154 305.875 157.421L292.339 178.837C292.325 178.634 292.309 178.432 292.294 178.23C291.38 165.722 289.955 139.38 289.955 139.38L307.218 140.445Z" fill="#ED7D2B"/>
<path d="M304.396 141.36C304.396 141.36 293.26 169.276 285.937 182.397C278.614 195.518 276.325 199.179 276.325 199.179C276.325 199.179 272.13 197.501 271.748 196.357C271.748 196.357 274.549 171.03 279.453 164.856C282.223 161.367 285.479 150.898 285.631 147.236C285.784 143.575 286.623 136.328 286.623 136.328L304.396 141.36Z" fill="#FFA400"/>
<path d="M301.624 100.664C297.272 102.038 289.743 98.3303 289.743 98.3303C289.743 98.3303 293.754 95.319 293.544 89.0576L296.908 91.7688L299.195 93.6103C299.195 93.6103 299.185 94.6964 298.936 96.5991C298.87 97.0993 298.787 97.6566 298.685 98.267C300.553 99.2939 301.624 100.664 301.624 100.664Z" fill="#F8A972"/>
<path d="M299.195 93.6123C299.195 93.6123 299.185 94.6984 298.936 96.6011C296.402 96.1662 293.53 92.073 293.53 92.073C294.82 91.7014 295.949 91.634 296.909 91.7708L299.195 93.6123Z" fill="#ED975D"/>
<path d="M300.526 93.5082C300.526 93.5082 293.338 94.7025 292.664 90.2152C291.988 85.7279 290.606 82.8595 295.167 81.9061C299.728 80.9548 300.879 82.5329 301.469 83.9742C302.059 85.4196 302.378 93.0815 300.526 93.5082Z" fill="#F8A972"/>
<path d="M307.698 141.086C307.567 141.195 307.414 141.26 307.241 141.26C305.607 141.237 300.84 142.146 296.808 141.732C293.409 141.405 290.4 140.398 287.17 138.949C286.741 138.757 285.753 138.23 285.776 137.751C285.79 137.226 285.843 136.464 285.908 135.505C286.137 132.169 286.535 126.434 286.147 119.816C286.078 118.582 286.041 117.362 286.037 116.157C286.004 107.189 287.783 99.3 291.355 96.6297C291.662 96.4112 293.534 97.3259 295.257 98.1751C296.847 98.9591 298.437 99.0469 299.942 98.7427L301.445 100.072C303.276 101.772 305.281 104.081 306.152 107.591C306.894 110.575 307.328 115.959 307.569 121.539C307.677 124.066 307.765 126.616 307.788 129.035V129.121C307.808 129.36 307.808 129.623 307.808 129.862C307.894 136.074 307.806 140.999 307.698 141.086Z" fill="#004AFF"/>
<path d="M285.906 135.507C286.135 132.171 286.533 126.436 286.145 119.818C286.076 118.584 286.039 117.364 286.035 116.159C287.523 112.548 288.74 109.928 288.74 109.928H292.492C292.492 109.928 295.244 128.721 285.906 135.507Z" fill="#233862"/>
<path d="M266.685 156.802L282.689 159.083C284.771 159.379 286.719 157.919 287.015 155.834L288.003 148.899C288.299 146.817 286.839 144.869 284.755 144.573L268.751 142.293C266.669 141.997 264.721 143.457 264.425 145.541L263.437 152.476C263.141 154.559 264.603 156.506 266.685 156.802Z" fill="#233862"/>
<path d="M285.662 146.641C285.212 145.514 284.241 144.626 283.01 144.324H283.008C282.887 144.296 282.765 144.271 282.638 144.253L279.451 143.8L279.663 142.303C279.712 141.97 279.627 141.636 279.423 141.364C279.218 141.092 278.922 140.917 278.588 140.87L277.757 140.752L274.411 140.274L273.808 140.188C273.118 140.09 272.473 140.572 272.375 141.264L272.163 142.76L266.663 141.976C264.572 141.678 262.619 143.144 262.321 145.235L261.322 152.252C261.024 154.342 262.49 156.296 264.581 156.594L280.556 158.87C280.837 158.911 281.117 158.919 281.389 158.897C281.389 158.897 281.389 158.897 281.391 158.897C281.827 158.864 282.248 158.754 282.638 158.582C283.812 158.064 284.704 156.97 284.898 155.61L285.898 148.595C285.992 147.911 285.902 147.244 285.662 146.641ZM273.161 141.376C273.192 141.168 273.355 141.009 273.553 140.976C273.6 140.968 273.647 140.968 273.696 140.974L274.406 141.074L277.04 141.45L278.475 141.654C278.732 141.691 278.914 141.932 278.877 142.189L278.665 143.685L272.949 142.871L273.161 141.376Z" fill="#004AFF"/>
<path d="M278.855 136.152C278.855 136.152 278.014 137.271 277.981 137.718C277.755 140.75 279.141 141.17 275.554 142.854C275.554 142.854 274.023 143.438 273.996 142.25C273.97 141.062 275.06 141.042 274.86 139.378C274.631 137.459 274.653 137.44 275.913 136.438L276.748 135.06L278.855 136.152Z" fill="#F8A972"/>
<path d="M276.72 137.009C278.071 137.273 279.535 137.167 279.535 137.167C279.535 137.167 283.546 124.774 284.063 123.641C284.579 122.51 295.979 109.112 295.979 109.112L291.231 97.2278C291.231 97.2278 278.902 117.823 277.65 120.716C275.582 125.497 274.864 136.219 274.864 136.219C274.864 136.219 275.658 136.803 276.72 137.009Z" fill="#004AFF"/>
<path d="M292.658 89.7823C292.658 89.7823 293.395 89.6598 293.277 88.6431C293.158 87.6264 293.158 86.2994 293.985 86.5464C294.812 86.7935 294.853 87.4549 295.192 87.0691C295.53 86.6832 295.537 85.0561 297.995 84.9418C300.453 84.8275 301.451 85.6849 302.594 85.1807C303.737 84.6784 303.797 82.9472 303.797 82.9472C303.797 82.9472 303.472 83.5658 302.98 83.7618C302.98 83.7618 304.887 81.1527 302.68 79.3643C300.473 77.5759 298.221 78.7457 296.943 78.8233C294.128 78.9927 292.309 79.1622 291.39 81.0118C290.471 82.8614 290.851 88.0021 292.658 89.7823Z" fill="#004AFF"/>
<path d="M277.53 137.485C277.53 137.485 278.338 138.328 278.389 138.679C278.553 139.806 278.93 140.292 278.741 140.415C278.349 140.67 277.83 139.835 277.583 139.088C277.336 138.341 277.53 137.485 277.53 137.485Z" fill="#F8A972"/>
<path d="M580.716 208.457H0.677792C0.304189 208.457 0 208.153 0 207.78V207.502C0 207.128 0.304189 206.824 0.677792 206.824H580.716C581.089 206.824 581.394 207.128 581.394 207.502V207.78C581.394 208.151 581.089 208.457 580.716 208.457Z" fill="#2E3552"/>
<path d="M142.014 61.1414C144.409 65.5838 147.573 67.8132 147.573 67.8132H160.753C160.753 67.8132 140.189 57.7524 142.014 61.1414Z" fill="#233862"/>
<path d="M151.193 95.2617C151.526 95.6639 151.556 96.1049 151.375 96.5683C151.375 96.5704 151.373 96.5724 151.371 96.5744C151.034 97.4319 149.97 98.373 148.741 99.306C148.584 99.4265 148.443 99.5347 148.323 99.6367C148.29 99.6633 148.259 99.6898 148.229 99.7164C148.204 99.7368 148.18 99.7592 148.155 99.7776C147.004 100.782 147.42 101.031 145.346 103.075C142.982 105.404 141.398 105.404 140.953 105.173C140.577 104.977 141.385 103.73 142.282 102.328C142.324 102.26 142.367 102.191 142.412 102.123C142.531 101.938 142.651 101.748 142.77 101.56C143.821 99.8715 143.586 99.059 143.417 96.4968C143.28 94.4165 140.503 84.8131 140.503 84.8131L144.932 84.1741C144.932 84.1741 146.052 91.7911 147.481 92.9997C148.247 93.6428 149.121 93.6754 149.86 94.1572C149.913 94.1899 149.964 94.2246 150.013 94.2593C150.434 94.5553 150.86 94.8575 151.193 95.2617Z" fill="#F8A972"/>
<path d="M151.193 95.2618C151.526 95.664 151.557 96.105 151.375 96.5684C151.375 96.5704 151.373 96.5725 151.371 96.5745C150.962 97.4299 149.927 98.365 148.737 99.2979C148.582 99.4204 148.445 99.5327 148.323 99.6368C148.29 99.6634 148.259 99.6899 148.229 99.7164C148.204 99.7369 148.18 99.7593 148.155 99.7777C147.004 100.782 147.42 101.031 145.346 103.075C142.982 105.404 141.398 105.404 140.953 105.173C140.577 104.978 141.386 103.73 142.282 102.328C142.733 102.177 144.836 101.388 146.463 99.4184C147.896 97.6892 148.88 95.4435 149.86 94.1553C149.913 94.1879 149.964 94.2226 150.013 94.2574C150.434 94.5554 150.86 94.8576 151.193 95.2618Z" fill="#233862"/>
<path d="M115.737 91.5421C115.429 92.8956 113.496 92.616 111.344 92.026C109.192 91.438 109.69 92.0811 106.616 91.6564C103.541 91.2318 102.639 90.0559 102.557 89.5945C102.484 89.1862 104.011 89.0841 105.65 88.9391C105.856 88.9208 106.063 88.9024 106.271 88.882C108.122 88.7003 109.505 87.5468 111.207 86.6158C112.82 85.7339 115.29 82.0244 115.29 82.0244L119.508 82.4736C119.508 82.4736 117.197 85.7829 116.299 87.2242C115.77 88.0715 115.766 89.2127 115.805 90.0946C115.827 90.5744 115.846 91.0644 115.737 91.5421Z" fill="#F8A972"/>
<path d="M111.344 92.0259C109.192 91.438 109.69 92.081 106.616 91.6564C103.541 91.2317 102.639 90.0558 102.557 89.5944C102.484 89.1861 104.011 89.084 105.65 88.9391L105.664 88.9717C105.664 88.9717 107.477 90.3335 110.042 90.4641C112.132 90.5723 114.364 90.0334 115.807 90.0966C115.827 90.5764 115.844 91.0664 115.735 91.542C115.427 92.8935 113.496 92.6139 111.344 92.0259Z" fill="#233862"/>
<path d="M132.676 64.949L136.339 75.6916L141.12 89.719C141.12 89.719 142.517 89.8926 143.868 89.5435C145.111 89.2209 146.555 88.3247 146.555 88.3247C146.555 88.3247 145.528 73.3744 143.088 64.7428C142.463 62.5277 141.743 60.7291 140.924 59.7063C136.915 54.6963 132.676 64.949 132.676 64.949Z" fill="#233862"/>
<path d="M137.153 48.1675C139.764 47.4019 147.122 48.6758 154.5 50.3315L156.123 47.8123L172.182 46.9977C172.182 46.9977 177.149 58.8672 174.052 66.2597C173.597 67.3458 172.793 67.8296 171.351 67.8133C171.351 67.8133 171.233 67.8133 171.065 67.8133C171.065 67.8133 161.525 67.897 158.428 67.8133C150.46 67.5969 141.708 61.7193 140.563 61.458C138.688 61.0292 137.833 64.7775 135.843 68.6809C133.852 72.5844 117.659 85.7156 117.659 85.7156C117.659 85.7156 115.227 85.6727 114.231 85.2685C113.161 84.8337 112.781 84.2967 112.781 84.2967C112.781 84.2967 131.263 49.8926 137.153 48.1675Z" fill="#004AFF"/>
<path d="M156.82 25.7471C162.44 29.0442 173.838 35.8732 173.899 35.8324C173.899 35.8324 178.111 37.5514 180.567 36.0141C184.662 33.4519 187.016 26.3208 179.828 19.9308C176.243 16.7439 173.656 15.9232 173.395 10.9847C173.252 8.30621 169.839 -0.617381 163.745 0.0338723C163.236 0.0889941 162.722 0.123696 162.211 0.0930727C161.503 0.0502002 160.329 0.121652 159.108 0.80557C155.615 2.75729 148.298 24.2976 156.82 25.7471Z" fill="#233862"/>
<path d="M161.674 23.2033C161.648 23.2197 164.455 24.2629 166.372 23.4769C168.175 22.7379 169.606 19.8429 169.579 19.8409C168.769 19.7817 167.899 19.0488 167.34 14.3798L166.991 14.4941L161.131 16.4234C161.131 16.4234 161.501 18.2975 161.725 20.0777C161.913 21.5721 161.997 23.0012 161.674 23.2033Z" fill="#F8A972"/>
<path d="M161.131 16.4234C161.131 16.4234 161.501 18.2975 161.725 20.0778C165.076 19.5694 166.474 16.2825 166.993 14.4941L161.131 16.4234Z" fill="#ED975D"/>
<path d="M160.217 18.2485C160.217 18.2485 168.185 17.3992 167.581 12.4444C166.974 7.48954 167.597 4.04341 162.483 4.37618C157.369 4.70895 156.613 6.71988 156.413 8.42253C156.213 10.1252 158.128 18.3424 160.217 18.2485Z" fill="#F8A972"/>
<path d="M156.776 5.72568C156.776 5.72568 161.739 10.2436 165.188 10.6907C168.636 11.1378 169.975 10.064 169.975 10.064C169.975 10.064 167.982 8.3164 166.831 5.55215C166.492 4.73757 165.743 4.1639 164.865 4.06386C162.403 3.78621 157.726 3.56165 156.776 5.72568Z" fill="#233862"/>
<path d="M159.963 5.41946C159.963 5.41946 158.218 7.01799 157.65 8.2225C157.101 9.38618 156.87 12.1953 157.25 13.3243C157.25 13.3243 154.741 8.1 156.309 5.63789C157.973 3.0288 159.963 5.41946 159.963 5.41946Z" fill="#233862"/>
<path d="M154.67 34.7176C154.472 50.7968 154.39 47.4323 156.105 49.0064C156.52 49.3861 157.704 49.6372 159.268 49.7822C164.188 50.2436 172.872 49.6678 173.228 48.7655C174.45 45.646 173.675 44.6436 174.755 39.8459C174.867 39.3356 175.006 38.7844 175.165 38.1821C176.047 34.8891 176.847 33.7826 174.185 28.3827C171.772 23.4911 169.236 19.506 168.993 19.6408C162.173 23.4421 161.724 20.0777 161.724 20.0777C161.724 20.0777 154.766 26.874 154.67 34.7176Z" fill="#EAF6FF"/>
<path d="M136.339 75.6915L141.12 89.719C141.12 89.719 142.517 89.8925 143.868 89.5434C145.111 89.2208 146.555 88.3246 146.555 88.3246C146.555 88.3246 145.528 73.3743 143.088 64.7427L136.339 75.6915Z" fill="#004AFF"/>
<path d="M161.725 20.0778C161.725 20.0778 154.786 21.0597 153.894 24.0118C153.002 26.9639 147.753 44.315 147.753 44.315C147.753 44.315 151.246 45.0418 152.914 43.4637C154.58 41.8856 158.967 28.5685 158.967 28.5685L161.725 20.0778Z" fill="#EAF6FF"/>
<path d="M159.269 49.7824C164.189 50.2437 172.874 49.668 173.229 48.7657C174.452 45.6462 173.676 44.6438 174.756 39.8461L172.562 33.0886C172.562 33.0886 172.751 40.5525 170.5 42.4532C168.25 44.3539 161.396 45.9932 160.284 47.602C159.745 48.3737 159.385 49.1515 159.269 49.7824Z" fill="#EBF3FF"/>
<path d="M165.002 46.8016C165.002 46.8016 160.17 45.5869 159.373 45.9973C158.577 46.4076 156.617 47.9265 156.362 48.4675C156.107 49.0085 158.12 48.1001 158.771 47.9449C159.192 47.8449 160.284 48.2573 160.825 48.4532C163.099 49.2801 164.516 48.9248 164.516 48.9248L165.002 46.8016Z" fill="#F8A972"/>
<path d="M169 19.6367C169 19.6367 175.516 20.2165 177.69 23.4299C180.751 27.954 186.547 47.0363 182.862 49.4596C178.711 52.1892 164.304 49.6985 164.304 49.6985C164.304 49.6985 163.883 47.4344 164.584 46.3647C165.284 45.2949 176.214 43.8331 176.731 43.3452C177.247 42.8573 170.718 33.3784 170.759 31.8717C170.8 30.365 169 19.6367 169 19.6367Z" fill="#EAF6FF"/>
<path d="M159.1 47.3427C159.1 47.3427 158.044 48.6288 157.708 48.7758C157.369 48.9228 157.154 48.8779 157.154 48.8779L157.875 47.6611L159.1 47.3427Z" fill="#F8A972"/>
<path d="M159.373 45.9973L156.372 47.3549C156.372 47.3549 156.493 47.5652 156.858 47.5571C157.223 47.5509 158.152 47.2386 158.152 47.2386L159.373 45.9973Z" fill="#F8A972"/>
<path d="M157.652 50.7908L134.224 50.1518L127.652 32.4332L151.046 33.0702L157.652 50.7908Z" fill="#FFA400"/>
<path d="M133.966 49.4618L164.906 50.305L164.888 50.9868L134.224 50.1518L133.966 49.4618Z" fill="#ED7D2B"/>
<path d="M140.377 41.551C140.218 40.9303 140.587 40.4404 141.204 40.4567C141.82 40.473 142.449 40.9895 142.608 41.6122C142.767 42.2328 142.398 42.7228 141.781 42.7065C141.165 42.6881 140.536 42.1716 140.377 41.551Z" fill="#EAF6FF"/>
</g>
</svg>
