<svg width="51" height="50" viewBox="0 0 51 50" fill="none" xmlns="http://www.w3.org/2000/svg">
<path d="M0.393555 0H45.3936C48.155 0 50.3936 2.23858 50.3936 5V45C50.3936 47.7614 48.155 50 45.3936 50H0.393555V0Z" fill="#5FBBDB"/>
<path d="M24.0335 21.4144H29.3587V23.1981H24.0335V28.7042H22.2369V23.1981H16.9376V21.4144H22.2369V15.8825H24.0335V21.4144Z" fill="#FAFCFF"/>
<path fill-rule="evenodd" clip-rule="evenodd" d="M30.0204 20.7526V23.8598H24.6953V29.3659H21.5752V23.8598H16.2759V20.7526H21.5752V15.2207H24.6953V20.7526H30.0204ZM22.2369 21.4144H16.9376V23.1981H22.2369V28.7042H24.0335V23.1981H29.3587V21.4144H24.0335V15.8825H22.2369V21.4144Z" fill="#FAFCFF"/>
</svg>
