<svg width="222" height="54" viewBox="0 0 222 54" fill="none" xmlns="http://www.w3.org/2000/svg">
<path d="M28.196 20.0938H21.9744C21.8608 19.2888 21.6288 18.5739 21.2784 17.9489C20.928 17.3144 20.4782 16.7746 19.929 16.3295C19.3797 15.8845 18.7453 15.5436 18.0256 15.3068C17.3153 15.0701 16.5436 14.9517 15.7102 14.9517C14.2045 14.9517 12.893 15.3258 11.7756 16.0739C10.6581 16.8125 9.79167 17.892 9.17614 19.3125C8.56061 20.7235 8.25284 22.4375 8.25284 24.4545C8.25284 26.5284 8.56061 28.2708 9.17614 29.6818C9.80114 31.0928 10.6723 32.1581 11.7898 32.8778C12.9072 33.5975 14.1998 33.9574 15.6676 33.9574C16.4915 33.9574 17.2538 33.8485 17.9545 33.6307C18.6648 33.4129 19.2945 33.0956 19.8438 32.679C20.393 32.2528 20.8475 31.7367 21.2074 31.1307C21.5767 30.5246 21.8324 29.8333 21.9744 29.0568L28.196 29.0852C28.035 30.4205 27.6326 31.7083 26.9886 32.9489C26.3542 34.1799 25.4972 35.2831 24.4176 36.2585C23.3475 37.2244 22.0691 37.9915 20.5824 38.5597C19.1051 39.1184 17.4337 39.3977 15.5682 39.3977C12.9735 39.3977 10.6534 38.8106 8.60795 37.6364C6.57197 36.4621 4.96212 34.7623 3.77841 32.5369C2.60417 30.3116 2.01705 27.6174 2.01705 24.4545C2.01705 21.2822 2.61364 18.5833 3.80682 16.358C5 14.1326 6.61932 12.4375 8.66477 11.2727C10.7102 10.0985 13.0114 9.51136 15.5682 9.51136C17.2538 9.51136 18.8163 9.74811 20.2557 10.2216C21.7045 10.6951 22.9877 11.3864 24.1051 12.2955C25.2225 13.1951 26.1316 14.2983 26.8324 15.6051C27.5426 16.9119 27.9972 18.4081 28.196 20.0938ZM42.3509 39.4261C40.1444 39.4261 38.2363 38.9574 36.6264 38.0199C35.026 37.0729 33.7902 35.7566 32.919 34.071C32.0478 32.3759 31.6122 30.411 31.6122 28.1761C31.6122 25.9223 32.0478 23.9527 32.919 22.267C33.7902 20.572 35.026 19.2557 36.6264 18.3182C38.2363 17.3712 40.1444 16.8977 42.3509 16.8977C44.5573 16.8977 46.4607 17.3712 48.0611 18.3182C49.6709 19.2557 50.9115 20.572 51.7827 22.267C52.6539 23.9527 53.0895 25.9223 53.0895 28.1761C53.0895 30.411 52.6539 32.3759 51.7827 34.071C50.9115 35.7566 49.6709 37.0729 48.0611 38.0199C46.4607 38.9574 44.5573 39.4261 42.3509 39.4261ZM42.3793 34.7386C43.383 34.7386 44.2211 34.4545 44.8935 33.8864C45.5658 33.3087 46.0724 32.5227 46.4134 31.5284C46.7637 30.5341 46.9389 29.4025 46.9389 28.1335C46.9389 26.8646 46.7637 25.733 46.4134 24.7386C46.0724 23.7443 45.5658 22.9583 44.8935 22.3807C44.2211 21.803 43.383 21.5142 42.3793 21.5142C41.366 21.5142 40.5137 21.803 39.8224 22.3807C39.1406 22.9583 38.6245 23.7443 38.2741 24.7386C37.9332 25.733 37.7628 26.8646 37.7628 28.1335C37.7628 29.4025 37.9332 30.5341 38.2741 31.5284C38.6245 32.5227 39.1406 33.3087 39.8224 33.8864C40.5137 34.4545 41.366 34.7386 42.3793 34.7386ZM63.0753 26.3864V39H57.0241V17.1818H62.7912V21.0312H63.0469C63.5298 19.7623 64.3395 18.7585 65.4759 18.0199C66.6122 17.2718 67.9901 16.8977 69.6094 16.8977C71.1245 16.8977 72.4455 17.2292 73.5724 17.892C74.6993 18.5549 75.5753 19.5019 76.2003 20.733C76.8253 21.9545 77.1378 23.4129 77.1378 25.108V39H71.0866V26.1875C71.0961 24.8523 70.7552 23.8106 70.0639 23.0625C69.3726 22.3049 68.4209 21.9261 67.2088 21.9261C66.3944 21.9261 65.6747 22.1013 65.0497 22.4517C64.4342 22.8021 63.9512 23.3134 63.6009 23.9858C63.2599 24.6487 63.0848 25.4489 63.0753 26.3864ZM93.5121 17.1818V21.7273H80.3729V17.1818H93.5121ZM83.3558 11.9545H89.407V32.2955C89.407 32.8542 89.4922 33.2898 89.6626 33.6023C89.8331 33.9053 90.0698 34.1184 90.3729 34.2415C90.6854 34.3646 91.0452 34.4261 91.4524 34.4261C91.7365 34.4261 92.0206 34.4025 92.3047 34.3551C92.5888 34.2983 92.8066 34.2557 92.9581 34.2273L93.9098 38.7301C93.6068 38.8248 93.1806 38.9337 92.6314 39.0568C92.0821 39.1894 91.4145 39.2699 90.6286 39.2983C89.1702 39.3551 87.8918 39.161 86.7933 38.7159C85.7043 38.2708 84.8568 37.5795 84.2507 36.642C83.6446 35.7045 83.3464 34.5208 83.3558 33.0909V11.9545ZM103.675 39.4119C102.283 39.4119 101.043 39.1705 99.9538 38.6875C98.8648 38.1951 98.0031 37.4706 97.3686 36.5142C96.7436 35.5483 96.4311 34.3456 96.4311 32.9062C96.4311 31.6941 96.6536 30.6761 97.0987 29.8523C97.5438 29.0284 98.1499 28.3655 98.9169 27.8636C99.6839 27.3617 100.555 26.983 101.531 26.7273C102.515 26.4716 103.548 26.2917 104.627 26.1875C105.896 26.0549 106.919 25.9318 107.695 25.8182C108.472 25.6951 109.035 25.5152 109.386 25.2784C109.736 25.0417 109.911 24.6913 109.911 24.2273V24.142C109.911 23.2424 109.627 22.5464 109.059 22.054C108.5 21.5616 107.705 21.3153 106.673 21.3153C105.584 21.3153 104.717 21.5568 104.073 22.0398C103.429 22.5133 103.003 23.1098 102.795 23.8295L97.1982 23.375C97.4822 22.0492 98.041 20.9034 98.8743 19.9375C99.7076 18.9621 100.782 18.214 102.099 17.6932C103.424 17.1629 104.959 16.8977 106.701 16.8977C107.913 16.8977 109.073 17.0398 110.181 17.3239C111.299 17.608 112.288 18.0483 113.15 18.6449C114.021 19.2415 114.708 20.0085 115.21 20.946C115.711 21.8741 115.962 22.9867 115.962 24.2841V39H110.224V35.9744H110.053C109.703 36.6562 109.234 37.2576 108.647 37.7784C108.06 38.2898 107.354 38.6922 106.531 38.9858C105.707 39.2699 104.755 39.4119 103.675 39.4119ZM105.408 35.2358C106.299 35.2358 107.085 35.0606 107.766 34.7102C108.448 34.3504 108.983 33.8674 109.371 33.2614C109.76 32.6553 109.954 31.9687 109.954 31.2017V28.8864C109.764 29.0095 109.504 29.1231 109.173 29.2273C108.851 29.322 108.486 29.4119 108.079 29.4972C107.672 29.5729 107.264 29.6439 106.857 29.7102C106.45 29.767 106.081 29.8191 105.749 29.8665C105.039 29.9706 104.419 30.1364 103.888 30.3636C103.358 30.5909 102.946 30.8987 102.653 31.2869C102.359 31.6657 102.212 32.1392 102.212 32.7074C102.212 33.5312 102.511 34.161 103.107 34.5966C103.713 35.0227 104.48 35.2358 105.408 35.2358ZM130.515 39.4261C128.28 39.4261 126.358 38.9527 124.748 38.0057C123.147 37.0492 121.916 35.7235 121.055 34.0284C120.202 32.3333 119.776 30.3826 119.776 28.1761C119.776 25.9413 120.207 23.9811 121.069 22.2955C121.94 20.6004 123.176 19.2794 124.776 18.3324C126.377 17.3759 128.28 16.8977 130.487 16.8977C132.39 16.8977 134.057 17.2434 135.487 17.9347C136.916 18.6259 138.048 19.5966 138.881 20.8466C139.715 22.0966 140.174 23.5644 140.259 25.25H134.549C134.388 24.161 133.962 23.285 133.271 22.6222C132.589 21.9498 131.694 21.6136 130.586 21.6136C129.648 21.6136 128.829 21.8693 128.129 22.3807C127.437 22.8826 126.897 23.6165 126.509 24.5824C126.121 25.5483 125.927 26.7178 125.927 28.0909C125.927 29.483 126.116 30.6667 126.495 31.642C126.883 32.6174 127.428 33.3608 128.129 33.8722C128.829 34.3835 129.648 34.6392 130.586 34.6392C131.277 34.6392 131.897 34.4972 132.447 34.2131C133.005 33.929 133.465 33.517 133.825 32.9773C134.194 32.428 134.435 31.7699 134.549 31.0028H140.259C140.165 32.6695 139.71 34.1373 138.896 35.4062C138.091 36.6657 136.978 37.6506 135.558 38.3608C134.137 39.071 132.456 39.4261 130.515 39.4261ZM155.739 17.1818V21.7273H142.599V17.1818H155.739ZM145.582 11.9545H151.634V32.2955C151.634 32.8542 151.719 33.2898 151.889 33.6023C152.06 33.9053 152.296 34.1184 152.599 34.2415C152.912 34.3646 153.272 34.4261 153.679 34.4261C153.963 34.4261 154.247 34.4025 154.531 34.3551C154.815 34.2983 155.033 34.2557 155.185 34.2273L156.136 38.7301C155.833 38.8248 155.407 38.9337 154.858 39.0568C154.309 39.1894 153.641 39.2699 152.855 39.2983C151.397 39.3551 150.118 39.161 149.02 38.7159C147.931 38.2708 147.083 37.5795 146.477 36.642C145.871 35.7045 145.573 34.5208 145.582 33.0909V11.9545ZM182.93 29.7102V17.1818H188.981V39H183.171V35.0369H182.944C182.451 36.3153 181.632 37.3428 180.487 38.1193C179.35 38.8958 177.963 39.2841 176.325 39.2841C174.866 39.2841 173.583 38.9527 172.475 38.2898C171.367 37.6269 170.501 36.6847 169.876 35.4631C169.26 34.2415 168.948 32.7784 168.938 31.0739V17.1818H174.989V29.9943C174.999 31.2822 175.344 32.3002 176.026 33.0483C176.708 33.7964 177.622 34.1705 178.768 34.1705C179.497 34.1705 180.179 34.0047 180.813 33.6733C181.448 33.3324 181.959 32.8305 182.347 32.1676C182.745 31.5047 182.939 30.6856 182.93 29.7102ZM211.974 23.4034L206.435 23.7443C206.34 23.2708 206.136 22.8447 205.824 22.4659C205.511 22.0777 205.099 21.7699 204.588 21.5426C204.086 21.3059 203.485 21.1875 202.784 21.1875C201.847 21.1875 201.056 21.3864 200.412 21.7841C199.768 22.1723 199.446 22.6932 199.446 23.3466C199.446 23.8674 199.654 24.3078 200.071 24.6676C200.488 25.0275 201.203 25.3163 202.216 25.5341L206.165 26.3295C208.286 26.7652 209.867 27.4659 210.909 28.4318C211.951 29.3977 212.472 30.6667 212.472 32.2386C212.472 33.6686 212.05 34.9233 211.207 36.0028C210.374 37.0824 209.228 37.9252 207.77 38.5312C206.321 39.1278 204.65 39.4261 202.756 39.4261C199.867 39.4261 197.566 38.8248 195.852 37.6222C194.148 36.41 193.149 34.7623 192.855 32.679L198.807 32.3665C198.987 33.2472 199.422 33.9195 200.114 34.3835C200.805 34.8381 201.69 35.0653 202.77 35.0653C203.83 35.0653 204.683 34.8617 205.327 34.4545C205.98 34.0379 206.312 33.5028 206.321 32.8494C206.312 32.3002 206.08 31.8504 205.625 31.5C205.17 31.1402 204.47 30.8655 203.523 30.6761L199.744 29.9233C197.614 29.4972 196.027 28.7585 194.986 27.7074C193.954 26.6562 193.438 25.3163 193.438 23.6875C193.438 22.286 193.816 21.0786 194.574 20.0653C195.341 19.0521 196.416 18.2708 197.798 17.7216C199.19 17.1723 200.819 16.8977 202.685 16.8977C205.44 16.8977 207.609 17.4801 209.19 18.6449C210.781 19.8097 211.709 21.3958 211.974 23.4034Z" fill="#5FBBDB"/>
<path fill-rule="evenodd" clip-rule="evenodd" d="M219.149 42.0046C219.662 41.9528 220.118 42.3567 220.166 42.9065C220.214 43.4564 219.837 43.9441 219.324 43.9958L219.236 43.0002L219.149 42.0046ZM9.00347 42.9145C9.04766 42.3642 9.49997 41.9565 10.0137 42.0039L9.93372 43.0002L9.85371 43.9965C9.33995 43.9492 8.95929 43.4647 9.00347 42.9145ZM9.85494 43.9966C9.85494 43.9966 9.85371 43.9965 9.93372 43.0002C10.0137 42.0039 10.0149 42.004 10.0149 42.004L14.6118 42.427C17.5395 42.6963 21.7246 43.0809 26.754 43.5425C36.8128 44.4657 50.2488 45.6967 63.7577 46.9276C77.2667 48.1586 90.8482 49.3894 101.198 50.3126C106.373 50.7742 110.739 51.1587 113.884 51.4279C115.457 51.5625 116.723 51.6681 117.631 51.74C118.086 51.7759 118.449 51.8033 118.715 51.8216C118.849 51.8308 118.955 51.8376 119.036 51.842C119.064 51.8435 119.089 51.8447 119.109 51.8456C119.118 51.8461 119.126 51.8464 119.134 51.8467L119.163 51.8476L119.171 51.8478L119.174 51.8478L119.176 51.8478L119.184 51.8477L119.211 51.8467C119.234 51.8458 119.265 51.8443 119.303 51.8421C119.378 51.8378 119.478 51.8311 119.603 51.8219C119.851 51.8037 120.188 51.7764 120.608 51.7404C121.449 51.6686 122.616 51.563 124.063 51.4284C126.957 51.1593 130.964 50.7748 135.709 50.3132C145.198 49.3901 157.632 48.1592 169.994 46.9283C182.356 45.6974 194.644 44.4664 203.843 43.5432C208.442 43.0816 212.268 42.697 214.945 42.4277L219.148 42.0047C219.148 42.0047 219.149 42.0046 219.236 43.0002C219.324 43.9958 219.323 43.9959 219.323 43.9959L215.12 44.4189C212.443 44.6882 208.616 45.0729 204.017 45.5345C194.818 46.4577 182.529 47.6887 170.167 48.9197C157.805 50.1507 145.369 51.3817 135.878 52.305C131.133 52.7667 127.122 53.1515 124.225 53.4209C121.366 53.6868 119.519 53.8478 119.174 53.8478C118.833 53.8478 116.847 53.6878 113.736 53.4215C110.587 53.1521 106.219 52.7673 101.043 52.3057C90.6915 51.3824 77.1087 50.1514 63.5994 48.9204C50.09 47.6894 36.6536 46.4585 26.5946 45.5352C21.565 45.0736 17.3798 44.6889 14.452 44.4197L9.85494 43.9966Z" fill="#5FBBDB"/>
<path d="M10.0884 43.427C10.0884 43.427 117.39 48.427 119.733 48.427C122.076 48.427 220.166 43.427 220.166 43.427" stroke="#5FBBDB" stroke-width="2" stroke-linecap="round"/>
</svg>
